<?xml version="1.0" encoding="UTF-8"?>
<!DOCTYPE svg PUBLIC "-//W3C//DTD SVG 1.1//EN" "http://www.w3.org/Graphics/SVG/1.1/DTD/svg11.dtd">
<svg xmlns="http://www.w3.org/2000/svg" version="1.1" width="210px" height="533px" style="shape-rendering:geometricPrecision; text-rendering:geometricPrecision; image-rendering:optimizeQuality; fill-rule:evenodd; clip-rule:evenodd" xmlns:xlink="http://www.w3.org/1999/xlink">
<g><path style="opacity:0.935" fill="#e95b1a" d="M 122.5,32.5 C 128.912,31.4067 132.745,34.0733 134,40.5C 134.496,45.208 134.162,49.8747 133,54.5C 132.047,56.4552 130.713,58.1218 129,59.5C 123.971,53.6374 120.471,46.9708 118.5,39.5C 119.086,36.6511 120.42,34.3178 122.5,32.5 Z"/></g>
<g><path style="opacity:1" fill="#f3540b" d="M 128.5,164.5 C 127.523,167.287 127.19,170.287 127.5,173.5C 126.662,173.842 126.328,174.508 126.5,175.5C 126.5,176.167 126.5,176.833 126.5,177.5C 126.5,177.833 126.5,178.167 126.5,178.5C 125.5,178.5 124.5,178.5 123.5,178.5C 123.318,180.591 123.652,182.591 124.5,184.5C 122.827,186.523 122.16,188.856 122.5,191.5C 121.325,191.281 120.325,191.614 119.5,192.5C 120.877,194.289 121.877,196.289 122.5,198.5C 123.325,199.386 124.325,199.719 125.5,199.5C 125.351,198.448 125.517,197.448 126,196.5C 126.667,198.167 126.667,199.833 126,201.5C 125.586,201.043 125.086,200.709 124.5,200.5C 123.34,202.073 122.34,203.739 121.5,205.5C 121.833,206.167 122.167,206.833 122.5,207.5C 123.833,206.167 125.167,204.833 126.5,203.5C 129.018,206.367 130.685,209.7 131.5,213.5C 133.488,211.853 134.821,212.186 135.5,214.5C 132.608,216.63 131.275,219.63 131.5,223.5C 130.552,238.228 129.052,252.894 127,267.5C 125.376,271.746 124.043,276.08 123,280.5C 122.184,281.823 121.017,282.489 119.5,282.5C 118.229,268.151 116.729,253.818 115,239.5C 111.982,228.8 108.982,218.133 106,207.5C 103.987,187.553 103.154,167.553 103.5,147.5C 103.5,146.167 103.5,144.833 103.5,143.5C 102.5,143.5 101.5,143.5 100.5,143.5C 100.111,146.946 99.2775,150.279 98,153.5C 97.6667,153.167 97.3333,152.833 97,152.5C 96.5172,153.448 96.3505,154.448 96.5,155.5C 95.5,155.5 94.5,155.5 93.5,155.5C 94.08,150.33 92.2467,146.33 88,143.5C 87.6667,140.833 87.3333,138.167 87,135.5C 86.5831,136.756 85.7498,137.423 84.5,137.5C 85.4918,113.015 95.8252,93.5148 115.5,79C 116.793,78.51 118.127,78.3433 119.5,78.5C 114.613,91.2581 113.779,104.258 117,117.5C 120.333,126.167 123.667,134.833 127,143.5C 128.23,150.445 128.73,157.445 128.5,164.5 Z"/></g>
<g><path style="opacity:1" fill="#f05710" d="M 154.5,118.5 C 150.833,117.167 147.167,117.167 143.5,118.5C 141.629,118.141 140.129,117.141 139,115.5C 134.965,106.924 134.965,98.2574 139,89.5C 141.983,83.3037 145.983,82.3037 151,86.5C 151.76,90.819 152.427,95.1523 153,99.5C 155.499,102.998 157.332,106.832 158.5,111C 157.999,114.048 156.666,116.548 154.5,118.5 Z"/></g>
<g><path style="opacity:0.118" fill="#e16633" d="M 154.5,118.5 C 150.833,122.5 147.167,122.5 143.5,118.5C 147.167,117.167 150.833,117.167 154.5,118.5 Z"/></g>
<g><path style="opacity:0.004" fill="#fefffe" d="M 128.5,164.5 C 128.833,167.167 129.167,169.833 129.5,172.5C 129.59,175.152 128.924,177.485 127.5,179.5C 127.672,178.508 127.338,177.842 126.5,177.5C 126.5,176.833 126.5,176.167 126.5,175.5C 127.338,175.158 127.672,174.492 127.5,173.5C 127.19,170.287 127.523,167.287 128.5,164.5 Z"/></g>
<g><path style="opacity:1" fill="#f3540a" d="M 103.5,147.5 C 102.624,147.369 101.957,147.702 101.5,148.5C 93.5513,172.86 89.7179,197.86 90,223.5C 94.4755,244.633 95.9755,265.967 94.5,287.5C 93.823,291.618 92.823,295.618 91.5,299.5C 89.7791,305.277 86.7791,310.277 82.5,314.5C 79.8268,315.501 77.4935,317.001 75.5,319C 69.4725,319.17 63.4725,319.67 57.5,320.5C 51.7869,330.084 49.9536,340.418 52,351.5C 54.7693,361.261 56.6026,371.261 57.5,381.5C 56.9594,391.898 53.626,401.232 47.5,409.5C 47.3205,407.046 47.9872,404.879 49.5,403C 48.0703,402.522 46.7369,401.188 45.5,399C 46.2961,397.908 46.9628,396.741 47.5,395.5C 46.3877,393.61 45.5544,391.61 45,389.5C 44.0201,391.059 43.1867,392.726 42.5,394.5C 42.1667,392.667 41.8333,390.833 41.5,389C 42.397,384.476 43.397,379.976 44.5,375.5C 42.8959,371.977 43.2293,368.643 45.5,365.5C 44.6002,363.761 43.9335,361.928 43.5,360C 46.0484,352.528 46.0484,345.028 43.5,337.5C 44.4449,333.886 45.1116,330.219 45.5,326.5C 45.3823,323.629 44.7156,320.962 43.5,318.5C 45.0049,317.158 45.6715,315.492 45.5,313.5C 43.8008,313.34 42.1341,313.506 40.5,314C 41.694,316.658 40.694,317.824 37.5,317.5C 35.7826,320.982 34.4493,324.648 33.5,328.5C 34.6463,333.488 34.6463,338.488 33.5,343.5C 35.0913,346.593 35.7579,350.593 35.5,355.5C 34.5,355.5 33.5,355.5 32.5,355.5C 30.238,343.597 29.4047,331.597 30,319.5C 32.3851,305.682 38.8851,294.182 49.5,285C 58.7055,279.445 65.8722,272.611 71,264.5C 72,260.833 73,257.167 74,253.5C 72.7825,232.854 71.7825,212.188 71,191.5C 73.2118,181.748 76.5451,172.414 81,163.5C 83.1503,154.964 84.317,146.297 84.5,137.5C 85.7498,137.423 86.5831,136.756 87,135.5C 87.3333,138.167 87.6667,140.833 88,143.5C 92.2467,146.33 94.08,150.33 93.5,155.5C 94.5,155.5 95.5,155.5 96.5,155.5C 96.3505,154.448 96.5172,153.448 97,152.5C 97.3333,152.833 97.6667,153.167 98,153.5C 99.2775,150.279 100.111,146.946 100.5,143.5C 101.5,143.5 102.5,143.5 103.5,143.5C 103.5,144.833 103.5,146.167 103.5,147.5 Z"/></g>
<g><path style="opacity:1" fill="#f8761e" d="M 103.5,147.5 C 103.154,167.553 103.987,187.553 106,207.5C 108.982,218.133 111.982,228.8 115,239.5C 116.729,253.818 118.229,268.151 119.5,282.5C 118.533,281.194 117.199,280.527 115.5,280.5C 115.719,281.675 115.386,282.675 114.5,283.5C 113.682,280.893 113.182,278.226 113,275.5C 112.333,276.167 111.667,276.833 111,277.5C 109.983,275.624 109.149,273.624 108.5,271.5C 107.956,274.714 106.956,277.714 105.5,280.5C 104.919,277.625 103.919,274.958 102.5,272.5C 101.821,278.865 100.988,285.198 100,291.5C 97.7852,293.79 96.1185,296.457 95,299.5C 93.8545,298.316 92.6879,298.316 91.5,299.5C 92.823,295.618 93.823,291.618 94.5,287.5C 95.9755,265.967 94.4755,244.633 90,223.5C 89.7179,197.86 93.5513,172.86 101.5,148.5C 101.957,147.702 102.624,147.369 103.5,147.5 Z"/></g>
<g><path style="opacity:1" fill="#f3560d" d="M 160.5,229.5 C 160.53,230.497 160.03,231.164 159,231.5C 157.7,230.293 156.2,229.626 154.5,229.5C 154.33,230.822 154.663,231.989 155.5,233C 153.421,233.808 151.421,233.641 149.5,232.5C 147.972,228.361 146.972,224.028 146.5,219.5C 145.571,220.689 145.238,222.022 145.5,223.5C 144.167,223.5 142.833,223.5 141.5,223.5C 142.204,227.471 140.871,228.805 137.5,227.5C 136.092,223.314 135.425,218.981 135.5,214.5C 134.821,212.186 133.488,211.853 131.5,213.5C 130.685,209.7 129.018,206.367 126.5,203.5C 125.167,204.833 123.833,206.167 122.5,207.5C 122.167,206.833 121.833,206.167 121.5,205.5C 122.34,203.739 123.34,202.073 124.5,200.5C 125.086,200.709 125.586,201.043 126,201.5C 126.667,199.833 126.667,198.167 126,196.5C 125.517,197.448 125.351,198.448 125.5,199.5C 124.325,199.719 123.325,199.386 122.5,198.5C 121.877,196.289 120.877,194.289 119.5,192.5C 120.325,191.614 121.325,191.281 122.5,191.5C 122.16,188.856 122.827,186.523 124.5,184.5C 123.652,182.591 123.318,180.591 123.5,178.5C 124.5,178.5 125.5,178.5 126.5,178.5C 126.556,181.517 126.89,181.85 127.5,179.5C 128.924,177.485 129.59,175.152 129.5,172.5C 130.96,164.965 132.46,157.298 134,149.5C 134.879,146.654 136.546,145.987 139,147.5C 140.206,153.116 142.206,158.45 145,163.5C 151.308,169.804 155.975,177.137 159,185.5C 160.204,194.107 159.204,202.441 156,210.5C 154.28,217.728 155.78,224.062 160.5,229.5 Z"/></g>
<g><path style="opacity:1" fill="#f7771f" d="M 135.5,214.5 C 135.425,218.981 136.092,223.314 137.5,227.5C 141.376,238.814 147.042,249.147 154.5,258.5C 156.961,263.255 159.294,268.089 161.5,273C 163.495,282.06 163.995,291.226 163,300.5C 159.329,317.512 153.662,333.846 146,349.5C 137.723,371.024 136.223,393.024 141.5,415.5C 142.833,415.5 144.167,415.5 145.5,415.5C 146.343,407.443 148.51,399.777 152,392.5C 153.616,394.713 154.783,397.047 155.5,399.5C 156.446,403.392 157.946,407.059 160,410.5C 164.679,417.866 169.346,425.2 174,432.5C 181.177,452.69 179.511,472.023 169,490.5C 163.045,497.461 156.545,503.627 149.5,509C 151.579,509.808 153.579,509.641 155.5,508.5C 160.421,505.871 165.421,503.538 170.5,501.5C 170.5,502.5 170.5,503.5 170.5,504.5C 161.258,510.137 151.258,513.804 140.5,515.5C 139.282,514.839 137.949,514.172 136.5,513.5C 156.559,495.638 163.892,473.305 158.5,446.5C 156.91,444.32 155.576,441.987 154.5,439.5C 152.833,438.5 151.167,437.5 149.5,436.5C 146.767,437.535 144.767,439.368 143.5,442C 138.655,443.163 134.821,441.663 132,437.5C 126.978,427.087 123.645,416.087 122,404.5C 115.576,363.149 122.076,324.149 141.5,287.5C 142.223,285.218 142.557,282.884 142.5,280.5C 140.071,280.585 138.071,281.585 136.5,283.5C 134.975,286.048 133.308,288.381 131.5,290.5C 129.742,290.877 128.075,291.544 126.5,292.5C 125.315,291.147 123.981,289.98 122.5,289C 123.376,287.415 124.709,286.415 126.5,286C 125.751,284.266 125.251,282.433 125,280.5C 124.101,282.327 122.767,283.66 121,284.5C 119.97,284.164 119.47,283.497 119.5,282.5C 121.017,282.489 122.184,281.823 123,280.5C 124.043,276.08 125.376,271.746 127,267.5C 129.052,252.894 130.552,238.228 131.5,223.5C 131.275,219.63 132.608,216.63 135.5,214.5 Z"/></g>
<g><path style="opacity:1" fill="#f4540a" d="M 160.5,229.5 C 180.418,248.321 189.418,271.321 187.5,298.5C 186.835,300.369 186.169,302.369 185.5,304.5C 184.914,304.291 184.414,303.957 184,303.5C 183.097,308.208 181.597,312.708 179.5,317C 179.735,317.873 180.069,318.707 180.5,319.5C 179.726,320.711 178.893,320.711 178,319.5C 176.908,322.852 175.408,326.019 173.5,329C 173.989,330.138 174.322,331.305 174.5,332.5C 172.814,335.872 171.147,339.205 169.5,342.5C 168.5,342.5 167.5,342.5 166.5,342.5C 166.506,339.452 165.506,338.952 163.5,341C 164.866,343.382 164.533,345.548 162.5,347.5C 161.52,344.914 161.187,342.247 161.5,339.5C 160.167,339.5 158.833,339.5 157.5,339.5C 157.261,342.915 157.928,346.081 159.5,349C 159.055,350.447 158.388,351.78 157.5,353C 157.569,361.444 157.735,369.944 158,378.5C 158.898,380.626 160.065,382.626 161.5,384.5C 160.585,385.328 159.919,386.328 159.5,387.5C 161.18,390.571 161.847,393.904 161.5,397.5C 159.058,397.881 158.391,397.214 159.5,395.5C 159.192,394.692 158.692,394.025 158,393.5C 157.998,396.051 157.164,398.051 155.5,399.5C 154.783,397.047 153.616,394.713 152,392.5C 148.51,399.777 146.343,407.443 145.5,415.5C 144.167,415.5 142.833,415.5 141.5,415.5C 136.223,393.024 137.723,371.024 146,349.5C 153.662,333.846 159.329,317.512 163,300.5C 163.995,291.226 163.495,282.06 161.5,273C 159.294,268.089 156.961,263.255 154.5,258.5C 147.042,249.147 141.376,238.814 137.5,227.5C 140.871,228.805 142.204,227.471 141.5,223.5C 142.833,223.5 144.167,223.5 145.5,223.5C 145.238,222.022 145.571,220.689 146.5,219.5C 146.972,224.028 147.972,228.361 149.5,232.5C 151.421,233.641 153.421,233.808 155.5,233C 154.663,231.989 154.33,230.822 154.5,229.5C 156.2,229.626 157.7,230.293 159,231.5C 160.03,231.164 160.53,230.497 160.5,229.5 Z"/></g>
<g><path style="opacity:1" fill="#f15811" d="M 35.5,215.5 C 36.8221,215.33 37.9887,215.663 39,216.5C 40.2284,227.08 42.5617,237.414 46,247.5C 48.7786,257.291 47.7786,266.624 43,275.5C 37.086,283.66 31.4193,291.993 26,300.5C 24.1746,305.429 23.6746,310.429 24.5,315.5C 24.5472,317 23.8805,318 22.5,318.5C 18.1899,315.234 15.3565,310.901 14,305.5C 13.3333,300.167 13.3333,294.833 14,289.5C 17.8981,281.267 22.2314,273.267 27,265.5C 27.7138,262.405 28.7138,259.405 30,256.5C 31.3527,246.217 32.3527,235.883 33,225.5C 33.5334,222.071 34.3668,218.738 35.5,215.5 Z"/></g>
<g><path style="opacity:1" fill="#f7781f" d="M 119.5,282.5 C 119.47,283.497 119.97,284.164 121,284.5C 122.767,283.66 124.101,282.327 125,280.5C 125.251,282.433 125.751,284.266 126.5,286C 124.709,286.415 123.376,287.415 122.5,289C 123.981,289.98 125.315,291.147 126.5,292.5C 128.075,291.544 129.742,290.877 131.5,290.5C 127.851,297.461 124.517,304.461 121.5,311.5C 119.278,311.822 117.444,311.155 116,309.5C 111.605,300.019 108.938,290.019 108,279.5C 107,293.833 106,308.167 105,322.5C 103.894,326.804 102.894,331.137 102,335.5C 99.6428,342.96 95.6428,349.294 90,354.5C 89.228,354.355 88.5613,354.022 88,353.5C 87.1667,347.5 86.3333,341.5 85.5,335.5C 83.3957,338.28 81.5624,341.28 80,344.5C 78.049,357.758 76.7157,371.091 76,384.5C 75.3424,391.816 73.8424,398.816 71.5,405.5C 69.745,407.761 68.5784,410.428 68,413.5C 67.6667,412.5 67.3333,411.5 67,410.5C 66.6667,410.833 66.3333,411.167 66,411.5C 65.7256,404.8 66.2256,398.133 67.5,391.5C 67.1999,387.597 66.5333,383.764 65.5,380C 66.5995,375.934 66.5995,371.934 65.5,368C 65.1667,367.833 64.8333,367.667 64.5,367.5C 63.671,372.467 63.171,377.467 63,382.5C 62.6667,382.833 62.3333,383.167 62,383.5C 61.8198,380.044 61.1532,376.711 60,373.5C 59.8333,374 59.6667,374.5 59.5,375C 59.5,380.333 59.5,385.667 59.5,391C 62.8476,396.477 61.5143,398.31 55.5,396.5C 55.0482,400.163 54.5482,403.83 54,407.5C 52.673,410.659 50.5064,412.992 47.5,414.5C 47.5,412.833 47.5,411.167 47.5,409.5C 53.626,401.232 56.9594,391.898 57.5,381.5C 56.6026,371.261 54.7693,361.261 52,351.5C 49.9536,340.418 51.7869,330.084 57.5,320.5C 63.4725,319.67 69.4725,319.17 75.5,319C 77.4935,317.001 79.8268,315.501 82.5,314.5C 86.7791,310.277 89.7791,305.277 91.5,299.5C 92.6879,298.316 93.8545,298.316 95,299.5C 96.1185,296.457 97.7852,293.79 100,291.5C 100.988,285.198 101.821,278.865 102.5,272.5C 103.919,274.958 104.919,277.625 105.5,280.5C 106.956,277.714 107.956,274.714 108.5,271.5C 109.149,273.624 109.983,275.624 111,277.5C 111.667,276.833 112.333,276.167 113,275.5C 113.182,278.226 113.682,280.893 114.5,283.5C 115.386,282.675 115.719,281.675 115.5,280.5C 117.199,280.527 118.533,281.194 119.5,282.5 Z"/></g>
<g><path style="opacity:0.157" fill="#ec6b27" d="M 187.5,298.5 C 185.902,311.005 181.568,322.339 174.5,332.5C 174.322,331.305 173.989,330.138 173.5,329C 175.408,326.019 176.908,322.852 178,319.5C 178.893,320.711 179.726,320.711 180.5,319.5C 180.069,318.707 179.735,317.873 179.5,317C 181.597,312.708 183.097,308.208 184,303.5C 184.414,303.957 184.914,304.291 185.5,304.5C 186.169,302.369 186.835,300.369 187.5,298.5 Z"/></g>
<g><path style="opacity:1" fill="#fa9f32" d="M 131.5,290.5 C 133.308,288.381 134.975,286.048 136.5,283.5C 138.071,281.585 140.071,280.585 142.5,280.5C 142.557,282.884 142.223,285.218 141.5,287.5C 122.076,324.149 115.576,363.149 122,404.5C 123.645,416.087 126.978,427.087 132,437.5C 134.821,441.663 138.655,443.163 143.5,442C 144.767,439.368 146.767,437.535 149.5,436.5C 151.167,437.5 152.833,438.5 154.5,439.5C 155.576,441.987 156.91,444.32 158.5,446.5C 163.892,473.305 156.559,495.638 136.5,513.5C 137.949,514.172 139.282,514.839 140.5,515.5C 128.58,516.479 116.58,516.812 104.5,516.5C 104.611,515.883 104.944,515.383 105.5,515C 112.833,514.667 120.167,514.333 127.5,514C 131.223,512.769 134.223,510.602 136.5,507.5C 143.339,492.176 145.339,476.176 142.5,459.5C 139.5,461.167 136.5,462.833 133.5,464.5C 129.043,469.459 124.376,474.292 119.5,479C 118.207,479.49 116.873,479.657 115.5,479.5C 116.457,466.34 117.457,453.174 118.5,440C 118.308,430.264 116.808,420.764 114,411.5C 112.39,396.869 111.224,382.203 110.5,367.5C 109.914,367.709 109.414,368.043 109,368.5C 108,373.5 107,378.5 106,383.5C 105.177,398.512 104.177,413.512 103,428.5C 101.951,435.255 99.7839,441.588 96.5,447.5C 95.045,430.156 92.2116,413.156 88,396.5C 87.6667,396.833 87.3333,397.167 87,397.5C 80.1269,424.409 77.9602,451.742 80.5,479.5C 82.7189,486.271 85.2189,492.938 88,499.5C 91.9479,503.891 95.7813,508.391 99.5,513C 97.2774,513.566 95.2774,514.4 93.5,515.5C 89.8776,515.678 86.5443,515.011 83.5,513.5C 84.8083,512.768 86.1416,511.934 87.5,511C 69.2412,496.75 58.0746,478.25 54,455.5C 53.1888,448.586 53.3555,441.752 54.5,435C 55.5,434.333 56.5,434.333 57.5,435C 59.0175,436.685 60.6841,438.185 62.5,439.5C 63.3985,442.394 64.7319,445.061 66.5,447.5C 67.2054,433.359 68.8721,419.359 71.5,405.5C 73.8424,398.816 75.3424,391.816 76,384.5C 76.7157,371.091 78.049,357.758 80,344.5C 81.5624,341.28 83.3957,338.28 85.5,335.5C 86.3333,341.5 87.1667,347.5 88,353.5C 88.5613,354.022 89.228,354.355 90,354.5C 95.6428,349.294 99.6428,342.96 102,335.5C 102.894,331.137 103.894,326.804 105,322.5C 106,308.167 107,293.833 108,279.5C 108.938,290.019 111.605,300.019 116,309.5C 117.444,311.155 119.278,311.822 121.5,311.5C 124.517,304.461 127.851,297.461 131.5,290.5 Z"/></g>
<g><path style="opacity:1" fill="#f7781f" d="M 71.5,405.5 C 68.8721,419.359 67.2054,433.359 66.5,447.5C 64.7319,445.061 63.3985,442.394 62.5,439.5C 60.6841,438.185 59.0175,436.685 57.5,435C 56.5,434.333 55.5,434.333 54.5,435C 53.3555,441.752 53.1888,448.586 54,455.5C 58.0746,478.25 69.2412,496.75 87.5,511C 86.1416,511.934 84.8083,512.768 83.5,513.5C 79.3811,512.903 75.3811,511.903 71.5,510.5C 71.5106,508.983 72.1772,507.816 73.5,507C 40.483,487.432 29.983,459.265 42,422.5C 43.116,419.244 44.9493,416.578 47.5,414.5C 50.5064,412.992 52.673,410.659 54,407.5C 54.5482,403.83 55.0482,400.163 55.5,396.5C 61.5143,398.31 62.8476,396.477 59.5,391C 59.5,385.667 59.5,380.333 59.5,375C 59.6667,374.5 59.8333,374 60,373.5C 61.1532,376.711 61.8198,380.044 62,383.5C 62.3333,383.167 62.6667,382.833 63,382.5C 63.171,377.467 63.671,372.467 64.5,367.5C 64.8333,367.667 65.1667,367.833 65.5,368C 66.5995,371.934 66.5995,375.934 65.5,380C 66.5333,383.764 67.1999,387.597 67.5,391.5C 66.2256,398.133 65.7256,404.8 66,411.5C 66.3333,411.167 66.6667,410.833 67,410.5C 67.3333,411.5 67.6667,412.5 68,413.5C 68.5784,410.428 69.745,407.761 71.5,405.5 Z"/></g>
<g><path style="opacity:1" fill="#f3540a" d="M 47.5,409.5 C 47.5,411.167 47.5,412.833 47.5,414.5C 44.9493,416.578 43.116,419.244 42,422.5C 29.983,459.265 40.483,487.432 73.5,507C 72.1772,507.816 71.5106,508.983 71.5,510.5C 48.2475,502.415 32.4142,486.748 24,463.5C 21.9719,456.516 20.1386,449.516 18.5,442.5C 19.4959,442.414 20.3292,442.748 21,443.5C 21.1667,439.333 21.3333,435.167 21.5,431C 21.4915,426.443 20.8248,422.276 19.5,418.5C 22.2392,407.45 26.0725,396.783 31,386.5C 33.5694,376.252 34.0694,365.919 32.5,355.5C 33.5,355.5 34.5,355.5 35.5,355.5C 35.7579,350.593 35.0913,346.593 33.5,343.5C 34.6463,338.488 34.6463,333.488 33.5,328.5C 34.4493,324.648 35.7826,320.982 37.5,317.5C 40.694,317.824 41.694,316.658 40.5,314C 42.1341,313.506 43.8008,313.34 45.5,313.5C 45.6715,315.492 45.0049,317.158 43.5,318.5C 44.7156,320.962 45.3823,323.629 45.5,326.5C 45.1116,330.219 44.4449,333.886 43.5,337.5C 46.0484,345.028 46.0484,352.528 43.5,360C 43.9335,361.928 44.6002,363.761 45.5,365.5C 43.2293,368.643 42.8959,371.977 44.5,375.5C 43.397,379.976 42.397,384.476 41.5,389C 41.8333,390.833 42.1667,392.667 42.5,394.5C 43.1867,392.726 44.0201,391.059 45,389.5C 45.5544,391.61 46.3877,393.61 47.5,395.5C 46.9628,396.741 46.2961,397.908 45.5,399C 46.7369,401.188 48.0703,402.522 49.5,403C 47.9872,404.879 47.3205,407.046 47.5,409.5 Z"/></g>
<g><path style="opacity:1" fill="#f3570d" d="M 169.5,342.5 C 161.733,354.568 159.566,367.568 163,381.5C 164,383.167 165,384.833 166,386.5C 174,393.833 182,401.167 190,408.5C 195.336,414.506 198.503,421.506 199.5,429.5C 198.883,429.611 198.383,429.944 198,430.5C 197.667,438.5 197.333,446.5 197,454.5C 195.281,460.829 193.447,467.162 191.5,473.5C 192.5,473.5 193.5,473.5 194.5,473.5C 189.621,486.264 181.621,496.597 170.5,504.5C 170.5,503.5 170.5,502.5 170.5,501.5C 165.421,503.538 160.421,505.871 155.5,508.5C 153.579,509.641 151.579,509.808 149.5,509C 156.545,503.627 163.045,497.461 169,490.5C 179.511,472.023 181.177,452.69 174,432.5C 169.346,425.2 164.679,417.866 160,410.5C 157.946,407.059 156.446,403.392 155.5,399.5C 157.164,398.051 157.998,396.051 158,393.5C 158.692,394.025 159.192,394.692 159.5,395.5C 158.391,397.214 159.058,397.881 161.5,397.5C 161.847,393.904 161.18,390.571 159.5,387.5C 159.919,386.328 160.585,385.328 161.5,384.5C 160.065,382.626 158.898,380.626 158,378.5C 157.735,369.944 157.569,361.444 157.5,353C 158.388,351.78 159.055,350.447 159.5,349C 157.928,346.081 157.261,342.915 157.5,339.5C 158.833,339.5 160.167,339.5 161.5,339.5C 161.187,342.247 161.52,344.914 162.5,347.5C 164.533,345.548 164.866,343.382 163.5,341C 165.506,338.952 166.506,339.452 166.5,342.5C 167.5,342.5 168.5,342.5 169.5,342.5 Z"/></g>
<g><path style="opacity:1" fill="#fbb45e" d="M 104.5,516.5 C 100.629,516.815 96.9619,516.482 93.5,515.5C 95.2774,514.4 97.2774,513.566 99.5,513C 95.7813,508.391 91.9479,503.891 88,499.5C 85.2189,492.938 82.7189,486.271 80.5,479.5C 77.9602,451.742 80.1269,424.409 87,397.5C 87.3333,397.167 87.6667,396.833 88,396.5C 92.2116,413.156 95.045,430.156 96.5,447.5C 99.7839,441.588 101.951,435.255 103,428.5C 104.177,413.512 105.177,398.512 106,383.5C 107,378.5 108,373.5 109,368.5C 109.414,368.043 109.914,367.709 110.5,367.5C 111.224,382.203 112.39,396.869 114,411.5C 116.808,420.764 118.308,430.264 118.5,440C 117.457,453.174 116.457,466.34 115.5,479.5C 116.873,479.657 118.207,479.49 119.5,479C 124.376,474.292 129.043,469.459 133.5,464.5C 136.5,462.833 139.5,461.167 142.5,459.5C 145.339,476.176 143.339,492.176 136.5,507.5C 134.223,510.602 131.223,512.769 127.5,514C 120.167,514.333 112.833,514.667 105.5,515C 104.944,515.383 104.611,515.883 104.5,516.5 Z"/></g>
<g><path style="opacity:0.227" fill="#f0742e" d="M 19.5,418.5 C 20.8248,422.276 21.4915,426.443 21.5,431C 21.3333,435.167 21.1667,439.333 21,443.5C 20.3292,442.748 19.4959,442.414 18.5,442.5C 16.9232,434.381 17.2566,426.381 19.5,418.5 Z"/></g>
<g><path style="opacity:0.541" fill="#f17431" d="M 199.5,429.5 C 200.813,444.58 199.147,459.246 194.5,473.5C 193.5,473.5 192.5,473.5 191.5,473.5C 193.447,467.162 195.281,460.829 197,454.5C 197.333,446.5 197.667,438.5 198,430.5C 198.383,429.944 198.883,429.611 199.5,429.5 Z"/></g>
</svg>
