<?xml version="1.0" encoding="UTF-8"?>
<!DOCTYPE svg PUBLIC "-//W3C//DTD SVG 1.1//EN" "http://www.w3.org/Graphics/SVG/1.1/DTD/svg11.dtd">
<svg xmlns="http://www.w3.org/2000/svg" version="1.1" width="268px" height="778px" style="shape-rendering:geometricPrecision; text-rendering:geometricPrecision; image-rendering:optimizeQuality; fill-rule:evenodd; clip-rule:evenodd" xmlns:xlink="http://www.w3.org/1999/xlink">
<g><path style="opacity:1" fill="#f2540d" d="M 154.5,131.5 C 154.443,132.609 154.11,133.609 153.5,134.5C 152.595,139.653 151.095,144.653 149,149.5C 140.732,163.704 132.732,178.037 125,192.5C 121.441,203.85 117.108,214.85 112,225.5C 110.198,230.708 109.031,236.041 108.5,241.5C 106.989,240.498 105.322,239.831 103.5,239.5C 103.541,235.757 102.874,235.59 101.5,239C 100.833,239.667 100.167,239.667 99.5,239C 100.944,237.874 101.61,236.374 101.5,234.5C 100.833,232.5 100.167,230.5 99.5,228.5C 99.9693,225.075 101.469,224.742 104,227.5C 104.333,228.5 104.667,229.5 105,230.5C 107.625,227.273 109.792,223.606 111.5,219.5C 108.482,214.363 105.315,214.363 102,219.5C 100.8,218.35 101.133,217.017 103,215.5C 103.49,214.207 103.657,212.873 103.5,211.5C 99.9966,211.335 97.9966,213.002 97.5,216.5C 98.6565,218.771 99.1565,221.105 99,223.5C 97.5557,221.845 95.7224,221.178 93.5,221.5C 94.64,218.975 95.3067,216.308 95.5,213.5C 93.2646,213.795 91.2646,213.461 89.5,212.5C 93.3068,208.865 97.3068,205.365 101.5,202C 120.403,189.846 128.903,172.012 127,148.5C 126.333,145.833 125.667,143.167 125,140.5C 120.185,131.041 115.185,121.707 110,112.5C 104.41,97.6248 104.077,82.6248 109,67.5C 115.927,51.6602 122.26,35.6602 128,19.5C 129.079,17.6063 130.413,17.273 132,18.5C 130.639,34.3899 131.972,50.0565 136,65.5C 141.684,78.1972 147.35,90.8638 153,103.5C 155.383,112.756 155.883,122.09 154.5,131.5 Z"/></g>
<g><path style="opacity:0.004" fill="#fcede5" d="M 158.5,123.5 C 159.757,124.623 159.424,125.289 157.5,125.5C 156.427,124.749 156.26,123.749 157,122.5C 157.383,123.056 157.883,123.389 158.5,123.5 Z"/></g>
<g><path style="opacity:0.88" fill="#e16125" d="M 167.5,116.5 C 165.621,117.341 163.621,117.675 161.5,117.5C 161.667,131.504 161.5,145.504 161,159.5C 160.28,157.944 159.113,156.944 157.5,156.5C 158.449,151.26 158.782,145.927 158.5,140.5C 160.18,138.274 159.847,136.607 157.5,135.5C 157.5,133.833 157.5,132.167 157.5,130.5C 157.5,129.833 157.5,129.167 157.5,128.5C 157.5,127.5 157.5,126.5 157.5,125.5C 159.424,125.289 159.757,124.623 158.5,123.5C 158.461,122.417 158.127,121.417 157.5,120.5C 159.111,117.78 159.944,114.78 160,111.5C 160.606,108.452 162.106,105.952 164.5,104C 165.744,103.544 166.577,104.044 167,105.5C 167.499,109.152 167.665,112.818 167.5,116.5 Z"/></g>
<g><path style="opacity:0.004" fill="#fefffe" d="M 157.5,128.5 C 157.5,129.167 157.5,129.833 157.5,130.5C 155.912,131.635 155.579,132.969 156.5,134.5C 155.575,135.562 154.575,135.562 153.5,134.5C 154.11,133.609 154.443,132.609 154.5,131.5C 155.272,130.306 156.272,129.306 157.5,128.5 Z"/></g>
<g><path style="opacity:0.027" fill="#eecebb" d="M 157.5,135.5 C 159.847,136.607 160.18,138.274 158.5,140.5C 157.549,139.081 157.216,137.415 157.5,135.5 Z"/></g>
<g><path style="opacity:1" fill="#ee5510" d="M 81.5,141.5 C 82.8734,141.343 84.2068,141.51 85.5,142C 90.228,145.726 95.228,149.059 100.5,152C 108.35,162.465 108.016,172.799 99.5,183C 97.6467,183.551 96.3133,182.885 95.5,181C 95.9922,177.02 94.9922,173.187 92.5,169.5C 85.451,163.236 81.451,155.402 80.5,146C 80.6052,144.408 80.9386,142.908 81.5,141.5 Z"/></g>
<g><path style="opacity:1" fill="#f3540a" d="M 167.5,116.5 C 170.447,128.741 174.281,140.741 179,152.5C 182.333,165.5 182.333,178.5 179,191.5C 173.601,204.197 169.101,217.197 165.5,230.5C 163.958,229.699 162.292,229.366 160.5,229.5C 160.5,236.833 160.5,244.167 160.5,251.5C 161.5,251.5 162.5,251.5 163.5,251.5C 163.134,256.373 164.467,260.706 167.5,264.5C 166.311,265.429 164.978,265.762 163.5,265.5C 162.742,268.487 161.909,271.487 161,274.5C 160.617,273.944 160.117,273.611 159.5,273.5C 153.73,262.53 148.73,251.197 144.5,239.5C 143.52,236.914 143.187,234.247 143.5,231.5C 143.643,226.883 141.976,226.216 138.5,229.5C 138.167,233.833 137.833,238.167 137.5,242.5C 137.584,247.473 138.251,252.307 139.5,257C 136.804,264.198 135.47,263.698 135.5,255.5C 134.167,255.5 132.833,255.5 131.5,255.5C 131.5,258.167 131.5,260.833 131.5,263.5C 127.759,263.334 125.593,261.334 125,257.5C 124.187,259.436 123.687,261.436 123.5,263.5C 115.994,245.173 117.494,227.506 128,210.5C 137.806,198.368 146.806,185.701 155,172.5C 156.785,167.314 157.618,161.98 157.5,156.5C 159.113,156.944 160.28,157.944 161,159.5C 161.5,145.504 161.667,131.504 161.5,117.5C 163.621,117.675 165.621,117.341 167.5,116.5 Z"/></g>
<g><path style="opacity:1" fill="#f4540a" d="M 108.5,241.5 C 107.031,254.736 111.531,264.736 122,271.5C 122.66,273.324 123.827,274.657 125.5,275.5C 127.17,278.105 127.504,278.105 126.5,275.5C 125.5,271.5 124.5,267.5 123.5,263.5C 123.687,261.436 124.187,259.436 125,257.5C 125.593,261.334 127.759,263.334 131.5,263.5C 131.5,260.833 131.5,258.167 131.5,255.5C 132.833,255.5 134.167,255.5 135.5,255.5C 135.47,263.698 136.804,264.198 139.5,257C 138.251,252.307 137.584,247.473 137.5,242.5C 137.833,238.167 138.167,233.833 138.5,229.5C 141.976,226.216 143.643,226.883 143.5,231.5C 141.588,229.128 140.422,229.795 140,233.5C 139.333,239.833 139.333,246.167 140,252.5C 146.443,270.105 149.943,288.272 150.5,307C 151.597,331.243 145.597,353.409 132.5,373.5C 133.455,352.108 126.622,333.775 112,318.5C 108.857,309.733 105.523,301.066 102,292.5C 100.724,304.811 99.7241,317.144 99,329.5C 92.2274,341.732 83.7274,352.732 73.5,362.5C 70.3043,368.417 70.971,373.751 75.5,378.5C 85.8183,383.152 96.485,386.986 107.5,390C 109.729,391.485 112.062,392.818 114.5,394C 129.29,409.823 133.457,428.323 127,449.5C 125.391,454.158 123.891,458.825 122.5,463.5C 114.845,476.821 104.511,487.488 91.5,495.5C 88.8212,501.101 85.9879,506.767 83,512.5C 80.8333,513.333 79.3333,514.833 78.5,517C 72.8664,518.683 68.8664,516.849 66.5,511.5C 65.5023,503.528 65.169,495.528 65.5,487.5C 66.0065,483.993 65.3398,480.826 63.5,478C 65.4789,477.316 67.1456,477.816 68.5,479.5C 68.9755,482.184 69.9755,484.517 71.5,486.5C 71.7104,483.614 71.8771,480.614 72,477.5C 73.3333,476.167 74.6667,476.167 76,477.5C 77.0736,476.382 78.2402,475.382 79.5,474.5C 77.1667,473.833 74.8333,473.167 72.5,472.5C 75.4281,471.516 78.4281,471.183 81.5,471.5C 81.5,470.5 81.5,469.5 81.5,468.5C 83.5,468.5 85.5,468.5 87.5,468.5C 87.5,469.5 87.5,470.5 87.5,471.5C 90.3433,471.083 93.01,470.083 95.5,468.5C 94.1667,467.167 92.8333,465.833 91.5,464.5C 93.5143,462.982 95.5143,462.315 97.5,462.5C 97.2907,461.914 96.9574,461.414 96.5,461C 98.1066,459.951 98.7733,458.451 98.5,456.5C 97.1667,456.5 95.8333,456.5 94.5,456.5C 103.522,442.611 103.689,428.611 95,414.5C 91.9192,411.707 88.4192,409.54 84.5,408C 75.5329,406.707 66.5329,405.707 57.5,405C 44.9263,403.963 34.4263,398.796 26,389.5C 21.871,383.801 20.5377,377.468 22,370.5C 23.5557,365.72 25.8891,361.387 29,357.5C 39.7741,345.729 50.7741,334.396 62,323.5C 67.0962,315.45 69.2629,306.617 68.5,297C 68.0833,289.501 67.7499,282.001 67.5,274.5C 69.2451,265.963 69.9118,257.296 69.5,248.5C 68.5,248.5 67.5,248.5 66.5,248.5C 69.1505,233.178 76.8171,221.178 89.5,212.5C 91.2646,213.461 93.2646,213.795 95.5,213.5C 95.3067,216.308 94.64,218.975 93.5,221.5C 95.7224,221.178 97.5557,221.845 99,223.5C 99.1565,221.105 98.6565,218.771 97.5,216.5C 97.9966,213.002 99.9966,211.335 103.5,211.5C 103.657,212.873 103.49,214.207 103,215.5C 101.133,217.017 100.8,218.35 102,219.5C 105.315,214.363 108.482,214.363 111.5,219.5C 109.792,223.606 107.625,227.273 105,230.5C 104.667,229.5 104.333,228.5 104,227.5C 101.469,224.742 99.9693,225.075 99.5,228.5C 100.167,230.5 100.833,232.5 101.5,234.5C 101.61,236.374 100.944,237.874 99.5,239C 100.167,239.667 100.833,239.667 101.5,239C 102.874,235.59 103.541,235.757 103.5,239.5C 105.322,239.831 106.989,240.498 108.5,241.5 Z"/></g>
<g><path style="opacity:0.337" fill="#d55d25" d="M 66.5,248.5 C 67.5,248.5 68.5,248.5 69.5,248.5C 69.9118,257.296 69.2451,265.963 67.5,274.5C 65.9413,265.971 65.608,257.304 66.5,248.5 Z"/></g>
<g><path style="opacity:1" fill="#f8771e" d="M 143.5,231.5 C 143.187,234.247 143.52,236.914 144.5,239.5C 148.73,251.197 153.73,262.53 159.5,273.5C 161.212,278.59 163.712,283.256 167,287.5C 173.349,306.453 172.849,325.286 165.5,344C 160.602,354.599 156.102,365.432 152,376.5C 149.565,385.389 149.065,394.389 150.5,403.5C 152.546,408.05 155.546,411.883 159.5,415C 166.56,417.932 173.893,419.932 181.5,421C 195.221,427.797 199.721,438.631 195,453.5C 193.735,456.461 192.569,459.461 191.5,462.5C 189.448,464.878 187.448,467.211 185.5,469.5C 184.203,466.203 181.87,463.87 178.5,462.5C 182.625,462.082 186.625,462.082 190.5,462.5C 190.62,460.266 190.287,458.099 189.5,456C 190.032,453.98 191.365,453.147 193.5,453.5C 193.945,445.675 193.112,438.009 191,430.5C 189.956,431.623 189.29,432.956 189,434.5C 187.961,433.29 186.794,432.29 185.5,431.5C 181.267,428.552 176.6,426.385 171.5,425C 167.311,424.188 163.311,424.355 159.5,425.5C 154.788,427.21 153.955,429.876 157,433.5C 157.808,435.579 157.641,437.579 156.5,439.5C 154.477,437.827 152.144,437.16 149.5,437.5C 147.638,435.783 145.971,433.783 144.5,431.5C 143.893,431.624 143.56,431.957 143.5,432.5C 141.74,432.069 139.74,432.069 137.5,432.5C 136.137,433.893 135.304,435.559 135,437.5C 134.13,436.892 133.63,436.059 133.5,435C 135.47,430.314 134.636,429.148 131,431.5C 130.333,434.833 130.333,438.167 131,441.5C 131.654,440.304 132.154,440.304 132.5,441.5C 131.376,442.914 130.376,444.414 129.5,446C 129.833,446.333 130.167,446.667 130.5,447C 129.684,454.421 129.184,461.921 129,469.5C 127.969,468.3 127.135,466.966 126.5,465.5C 127.309,464.014 127.309,462.681 126.5,461.5C 125.476,462.853 124.143,463.52 122.5,463.5C 123.891,458.825 125.391,454.158 127,449.5C 133.457,428.323 129.29,409.823 114.5,394C 112.062,392.818 109.729,391.485 107.5,390C 96.485,386.986 85.8183,383.152 75.5,378.5C 70.971,373.751 70.3043,368.417 73.5,362.5C 83.7274,352.732 92.2274,341.732 99,329.5C 99.7241,317.144 100.724,304.811 102,292.5C 105.523,301.066 108.857,309.733 112,318.5C 126.622,333.775 133.455,352.108 132.5,373.5C 145.597,353.409 151.597,331.243 150.5,307C 149.943,288.272 146.443,270.105 140,252.5C 139.333,246.167 139.333,239.833 140,233.5C 140.422,229.795 141.588,229.128 143.5,231.5 Z"/></g>
<g><path style="opacity:0.004" fill="#fefffe" d="M 125.5,275.5 C 125.833,275.5 126.167,275.5 126.5,275.5C 127.504,278.105 127.17,278.105 125.5,275.5 Z"/></g>
<g><path style="opacity:1" fill="#f25811" d="M 20.5,297.5 C 21.8221,297.33 22.9887,297.663 24,298.5C 26.4928,302.478 27.6594,306.811 27.5,311.5C 25.4475,321.499 23.2808,331.499 21,341.5C 20.3333,342.167 19.6667,342.833 19,343.5C 12.447,337.52 9.61362,330.02 10.5,321C 10.4767,316.432 10.9767,311.932 12,307.5C 14.6244,303.869 17.4577,300.536 20.5,297.5 Z"/></g>
<g><path style="opacity:1" fill="#fb9c31" d="M 90.5,352.5 C 93.9304,351.755 95.597,353.089 95.5,356.5C 95.0327,359.148 93.8661,361.481 92,363.5C 91.5012,367.486 91.3345,371.486 91.5,375.5C 81.6018,373.99 78.7685,368.656 83,359.5C 85.4786,357.034 87.9786,354.701 90.5,352.5 Z"/></g>
<g><path style="opacity:1" fill="#ed5611" d="M 227.5,384.5 C 232.558,383.717 236.058,385.717 238,390.5C 238.667,395.833 238.667,401.167 238,406.5C 237.74,408.618 236.74,410.284 235,411.5C 226.514,405.709 222.848,397.709 224,387.5C 225.145,386.364 226.312,385.364 227.5,384.5 Z"/></g>
<g><path style="opacity:1" fill="#f3540b" d="M 165.5,230.5 C 163.548,241.167 164.715,251.501 169,261.5C 177.345,275.189 184.345,289.522 190,304.5C 192.436,317.336 191.77,330.002 188,342.5C 182.685,355.803 177.352,369.137 172,382.5C 169.832,388.684 169.165,395.017 170,401.5C 171.351,403.01 173.018,404.01 175,404.5C 193.684,395.03 208.017,399.364 218,417.5C 226.177,438.144 223.51,457.144 210,474.5C 198.875,484.452 189.042,495.452 180.5,507.5C 180.265,506.903 179.765,506.57 179,506.5C 177.343,507.484 175.677,508.484 174,509.5C 173.837,512.617 173.67,515.95 173.5,519.5C 172.5,519.5 171.5,519.5 170.5,519.5C 170.418,523.578 169.418,527.411 167.5,531C 169.605,536.989 169.938,543.156 168.5,549.5C 167.167,552.167 165.833,552.167 164.5,549.5C 162.939,553.156 162.606,556.822 163.5,560.5C 161.5,560.167 159.5,559.833 157.5,559.5C 155.17,556.173 153.337,552.507 152,548.5C 149.626,532.37 152.626,517.37 161,503.5C 165.96,497.193 171.127,491.193 176.5,485.5C 180.259,480.519 183.259,475.185 185.5,469.5C 187.448,467.211 189.448,464.878 191.5,462.5C 192.569,459.461 193.735,456.461 195,453.5C 199.721,438.631 195.221,427.797 181.5,421C 173.893,419.932 166.56,417.932 159.5,415C 155.546,411.883 152.546,408.05 150.5,403.5C 149.065,394.389 149.565,385.389 152,376.5C 156.102,365.432 160.602,354.599 165.5,344C 172.849,325.286 173.349,306.453 167,287.5C 163.712,283.256 161.212,278.59 159.5,273.5C 160.117,273.611 160.617,273.944 161,274.5C 161.909,271.487 162.742,268.487 163.5,265.5C 164.978,265.762 166.311,265.429 167.5,264.5C 164.467,260.706 163.134,256.373 163.5,251.5C 162.5,251.5 161.5,251.5 160.5,251.5C 160.5,244.167 160.5,236.833 160.5,229.5C 162.292,229.366 163.958,229.699 165.5,230.5 Z"/></g>
<g><path style="opacity:1" fill="#f05e1b" d="M 261.5,442.5 C 260.778,442.082 260.278,441.416 260,440.5C 259.831,434.141 259.331,427.807 258.5,421.5C 257.749,422.376 257.249,423.376 257,424.5C 256,422.5 255,420.5 254,418.5C 253.821,421.553 253.321,424.553 252.5,427.5C 251.757,426.092 250.923,424.759 250,423.5C 249,426.167 248,426.167 247,423.5C 244.935,426.045 245.102,428.379 247.5,430.5C 245.024,432.356 242.524,432.689 240,431.5C 239.59,436.48 238.257,441.147 236,445.5C 234.612,445.214 233.112,445.548 231.5,446.5C 235.289,436.531 239.789,426.865 245,417.5C 245.373,407.927 247.04,398.593 250,389.5C 251,388.833 252,388.167 253,387.5C 255.248,397.582 257.914,407.582 261,417.5C 261.5,425.827 261.666,434.16 261.5,442.5 Z"/></g>
<g><path style="opacity:1" fill="#f7771f" d="M 143.5,432.5 C 143.688,434.103 143.188,435.437 142,436.5C 141.937,452.22 141.271,467.887 140,483.5C 134.61,494.918 127.277,504.918 118,513.5C 114.008,518.827 110.008,524.16 106,529.5C 99.3701,544.406 93.2034,559.406 87.5,574.5C 85.9263,575.984 84.593,577.651 83.5,579.5C 81.1725,580.724 78.8392,580.724 76.5,579.5C 75.6667,581.5 74.8333,583.5 74,585.5C 73.6979,599.163 72.1979,612.663 69.5,626C 64.7614,637.343 58.4281,647.509 50.5,656.5C 34.32,690.171 39.9867,719.504 67.5,744.5C 66.9953,745.919 65.9953,746.585 64.5,746.5C 53.7802,742.108 44.7802,735.441 37.5,726.5C 38.4734,726.013 39.4734,725.513 40.5,725C 28.85,705.844 25.0167,685.011 29,662.5C 31.2176,649.846 35.051,637.679 40.5,626C 46.0004,613.981 51.0004,601.648 55.5,589C 57.0085,581.251 57.6751,573.418 57.5,565.5C 55.9409,550.903 54.9409,536.236 54.5,521.5C 54.6667,515.5 54.8333,509.5 55,503.5C 57.5921,495.468 58.0921,487.301 56.5,479C 56.8333,477.833 57.1667,476.667 57.5,475.5C 61.6948,478.577 64.3615,482.577 65.5,487.5C 65.169,495.528 65.5023,503.528 66.5,511.5C 68.8664,516.849 72.8664,518.683 78.5,517C 79.3333,514.833 80.8333,513.333 83,512.5C 85.9879,506.767 88.8212,501.101 91.5,495.5C 104.511,487.488 114.845,476.821 122.5,463.5C 124.143,463.52 125.476,462.853 126.5,461.5C 127.309,462.681 127.309,464.014 126.5,465.5C 127.135,466.966 127.969,468.3 129,469.5C 129.184,461.921 129.684,454.421 130.5,447C 130.167,446.667 129.833,446.333 129.5,446C 130.376,444.414 131.376,442.914 132.5,441.5C 132.154,440.304 131.654,440.304 131,441.5C 130.333,438.167 130.333,434.833 131,431.5C 134.636,429.148 135.47,430.314 133.5,435C 133.63,436.059 134.13,436.892 135,437.5C 135.304,435.559 136.137,433.893 137.5,432.5C 139.74,432.069 141.74,432.069 143.5,432.5 Z"/></g>
<g><path style="opacity:1" fill="#f4580f" d="M 261.5,442.5 C 260.347,444.807 259.18,447.14 258,449.5C 252,454.833 246,460.167 240,465.5C 238.558,469.511 236.558,473.178 234,476.5C 233.085,475.672 232.419,474.672 232,473.5C 230.878,464.483 230.711,455.483 231.5,446.5C 233.112,445.548 234.612,445.214 236,445.5C 238.257,441.147 239.59,436.48 240,431.5C 242.524,432.689 245.024,432.356 247.5,430.5C 245.102,428.379 244.935,426.045 247,423.5C 248,426.167 249,426.167 250,423.5C 250.923,424.759 251.757,426.092 252.5,427.5C 253.321,424.553 253.821,421.553 254,418.5C 255,420.5 256,422.5 257,424.5C 257.249,423.376 257.749,422.376 258.5,421.5C 259.331,427.807 259.831,434.141 260,440.5C 260.278,441.416 260.778,442.082 261.5,442.5 Z"/></g>
<g><path style="opacity:1" fill="#fa9e32" d="M 185.5,431.5 C 186.664,434.814 187.83,438.148 189,441.5C 190.52,447.938 189.02,453.438 184.5,458C 182.833,458.667 181.167,458.667 179.5,458C 178.128,453.852 176.628,449.685 175,445.5C 170,441.167 165,436.833 160,432.5C 159.503,430.19 159.337,427.857 159.5,425.5C 163.311,424.355 167.311,424.188 171.5,425C 176.6,426.385 181.267,428.552 185.5,431.5 Z"/></g>
<g><path style="opacity:1" fill="#f3550b" d="M 94.5,456.5 C 95.8333,456.5 97.1667,456.5 98.5,456.5C 98.7733,458.451 98.1066,459.951 96.5,461C 96.9574,461.414 97.2907,461.914 97.5,462.5C 95.5143,462.315 93.5143,462.982 91.5,464.5C 92.8333,465.833 94.1667,467.167 95.5,468.5C 93.01,470.083 90.3433,471.083 87.5,471.5C 87.5,470.5 87.5,469.5 87.5,468.5C 85.5,468.5 83.5,468.5 81.5,468.5C 81.5,469.5 81.5,470.5 81.5,471.5C 78.4281,471.183 75.4281,471.516 72.5,472.5C 74.8333,473.167 77.1667,473.833 79.5,474.5C 78.2402,475.382 77.0736,476.382 76,477.5C 74.6667,476.167 73.3333,476.167 72,477.5C 71.8771,480.614 71.7104,483.614 71.5,486.5C 69.9755,484.517 68.9755,482.184 68.5,479.5C 67.1456,477.816 65.4789,477.316 63.5,478C 65.3398,480.826 66.0065,483.993 65.5,487.5C 64.3615,482.577 61.6948,478.577 57.5,475.5C 57.1667,476.667 56.8333,477.833 56.5,479C 58.0921,487.301 57.5921,495.468 55,503.5C 54.8333,509.5 54.6667,515.5 54.5,521.5C 54.9409,536.236 55.9409,550.903 57.5,565.5C 57.6751,573.418 57.0085,581.251 55.5,589C 51.0004,601.648 46.0004,613.981 40.5,626C 35.051,637.679 31.2176,649.846 29,662.5C 25.0167,685.011 28.85,705.844 40.5,725C 39.4734,725.513 38.4734,726.013 37.5,726.5C 18.7681,708.672 9.76813,686.672 10.5,660.5C 10.6066,650.374 11.7732,640.374 14,630.5C 19.5386,612.551 25.8719,594.884 33,577.5C 37.5879,563.074 38.5879,548.407 36,533.5C 32.2912,522.412 28.2912,511.412 24,500.5C 21.0091,488.78 22.6758,477.78 29,467.5C 33.6667,460.833 38.3333,454.167 43,447.5C 47.3625,440.231 48.3625,432.565 46,424.5C 42.821,421.321 39.6544,418.154 36.5,415C 36.8198,413.347 37.8198,412.347 39.5,412C 45.9887,410.782 51.1553,412.949 55,418.5C 57.254,422.007 59.254,425.673 61,429.5C 62.9312,437.293 65.2645,444.96 68,452.5C 72.9915,462.94 80.4915,465.774 90.5,461C 92.0414,459.629 93.3747,458.129 94.5,456.5 Z"/></g>
<g><path style="opacity:1" fill="#e95b1c" d="M 223.5,504.5 C 222.399,503.152 221.399,501.652 220.5,500C 218.251,499.137 216.418,499.637 215,501.5C 214.583,500.244 213.75,499.577 212.5,499.5C 216.851,494.464 221.518,489.631 226.5,485C 230.088,484.389 231.254,485.889 230,489.5C 227.243,494.336 225.077,499.336 223.5,504.5 Z"/></g>
<g><path style="opacity:1" fill="#f7781f" d="M 159.5,425.5 C 159.337,427.857 159.503,430.19 160,432.5C 165,436.833 170,441.167 175,445.5C 176.628,449.685 178.128,453.852 179.5,458C 181.167,458.667 182.833,458.667 184.5,458C 189.02,453.438 190.52,447.938 189,441.5C 187.83,438.148 186.664,434.814 185.5,431.5C 186.794,432.29 187.961,433.29 189,434.5C 189.29,432.956 189.956,431.623 191,430.5C 193.112,438.009 193.945,445.675 193.5,453.5C 191.365,453.147 190.032,453.98 189.5,456C 190.287,458.099 190.62,460.266 190.5,462.5C 186.625,462.082 182.625,462.082 178.5,462.5C 181.87,463.87 184.203,466.203 185.5,469.5C 183.259,475.185 180.259,480.519 176.5,485.5C 171.127,491.193 165.96,497.193 161,503.5C 152.626,517.37 149.626,532.37 152,548.5C 153.337,552.507 155.17,556.173 157.5,559.5C 159.826,564.499 163.826,567.666 169.5,569C 173.167,569.667 176.833,569.667 180.5,569C 184.475,567.472 188.475,566.306 192.5,565.5C 190.542,574.602 188.376,583.602 186,592.5C 185.168,602.849 185.334,613.183 186.5,623.5C 188.291,627.999 189.458,632.665 190,637.5C 199.774,654.587 207.441,672.587 213,691.5C 213.667,700.833 213.667,710.167 213,719.5C 212.033,721.63 210.866,723.63 209.5,725.5C 209.754,727.417 210.754,728.751 212.5,729.5C 208.5,734.167 204.167,738.5 199.5,742.5C 198.722,741.844 198.056,741.011 197.5,740C 202.626,732.365 204.959,723.865 204.5,714.5C 204.118,698.931 199.451,684.931 190.5,672.5C 184.479,663.987 177.646,656.32 170,649.5C 160.248,633.322 159.248,616.655 167,599.5C 166.878,594.979 168.211,590.979 171,587.5C 171.494,585.866 171.66,584.199 171.5,582.5C 166.965,582.602 162.965,584.102 159.5,587C 155.5,587.667 151.5,587.667 147.5,587C 140.866,582.137 136.366,575.637 134,567.5C 131.11,553.059 132.443,539.059 138,525.5C 143.528,512.779 150.362,500.779 158.5,489.5C 162,483.182 164.833,476.516 167,469.5C 168.316,463.315 167.149,457.648 163.5,452.5C 161.001,449.053 157.835,446.386 154,444.5C 152.653,442.003 151.153,439.67 149.5,437.5C 152.144,437.16 154.477,437.827 156.5,439.5C 157.641,437.579 157.808,435.579 157,433.5C 153.955,429.876 154.788,427.21 159.5,425.5 Z"/></g>
<g><path style="opacity:1" fill="#f99f32" d="M 149.5,437.5 C 151.153,439.67 152.653,442.003 154,444.5C 157.835,446.386 161.001,449.053 163.5,452.5C 167.149,457.648 168.316,463.315 167,469.5C 164.833,476.516 162,483.182 158.5,489.5C 150.362,500.779 143.528,512.779 138,525.5C 132.443,539.059 131.11,553.059 134,567.5C 136.366,575.637 140.866,582.137 147.5,587C 151.5,587.667 155.5,587.667 159.5,587C 162.965,584.102 166.965,582.602 171.5,582.5C 171.66,584.199 171.494,585.866 171,587.5C 168.211,590.979 166.878,594.979 167,599.5C 159.248,616.655 160.248,633.322 170,649.5C 177.646,656.32 184.479,663.987 190.5,672.5C 199.451,684.931 204.118,698.931 204.5,714.5C 204.959,723.865 202.626,732.365 197.5,740C 198.056,741.011 198.722,741.844 199.5,742.5C 197.45,744.547 195.117,746.214 192.5,747.5C 191.77,746.288 190.77,745.288 189.5,744.5C 192.276,739.58 193.609,734.247 193.5,728.5C 192.779,721.351 191.446,714.351 189.5,707.5C 186.988,707.423 184.988,708.423 183.5,710.5C 179.214,716.739 175.714,723.405 173,730.5C 171.471,731.729 170.304,733.229 169.5,735C 168.552,735.483 167.552,735.649 166.5,735.5C 168.129,731.379 169.295,727.046 170,722.5C 171.204,713.874 170.204,705.541 167,697.5C 161.582,687.942 156.915,677.942 153,667.5C 152.29,666.027 151.124,665.36 149.5,665.5C 149.681,668.397 149.348,671.23 148.5,674C 145.275,677.951 143.275,682.451 142.5,687.5C 138.361,692.075 136.028,697.409 135.5,703.5C 134.167,703.5 132.833,703.5 131.5,703.5C 130.706,691.918 131.872,680.585 135,669.5C 139.662,653.811 138.162,638.811 130.5,624.5C 129.675,623.614 128.675,623.281 127.5,623.5C 126.458,618.007 124.791,612.674 122.5,607.5C 121.502,599.528 121.169,591.528 121.5,583.5C 120.325,583.281 119.325,583.614 118.5,584.5C 115.187,598.995 112.687,613.662 111,628.5C 105.539,638.442 99.8722,648.109 94,657.5C 91.8381,667.483 89.6714,677.483 87.5,687.5C 84.8333,687.5 82.1667,687.5 79.5,687.5C 76.7487,679.742 74.4154,671.742 72.5,663.5C 70.0247,671.289 68.5247,679.289 68,687.5C 67.3333,700.5 67.3333,713.5 68,726.5C 70.6977,733.78 73.8643,740.78 77.5,747.5C 80.6853,747.722 81.6853,749.222 80.5,752C 79.2068,752.49 77.8734,752.657 76.5,752.5C 72.1225,751.054 68.1225,749.054 64.5,746.5C 65.9953,746.585 66.9953,745.919 67.5,744.5C 39.9867,719.504 34.32,690.171 50.5,656.5C 58.4281,647.509 64.7614,637.343 69.5,626C 72.1979,612.663 73.6979,599.163 74,585.5C 74.8333,583.5 75.6667,581.5 76.5,579.5C 78.8392,580.724 81.1725,580.724 83.5,579.5C 84.593,577.651 85.9263,575.984 87.5,574.5C 93.2034,559.406 99.3701,544.406 106,529.5C 110.008,524.16 114.008,518.827 118,513.5C 127.277,504.918 134.61,494.918 140,483.5C 141.271,467.887 141.937,452.22 142,436.5C 143.188,435.437 143.688,434.103 143.5,432.5C 143.56,431.957 143.893,431.624 144.5,431.5C 145.971,433.783 147.638,435.783 149.5,437.5 Z"/></g>
<g><path style="opacity:0.999" fill="#f2550c" d="M 212.5,499.5 C 213.75,499.577 214.583,500.244 215,501.5C 216.418,499.637 218.251,499.137 220.5,500C 221.399,501.652 222.399,503.152 223.5,504.5C 222.084,520.695 222.418,536.862 224.5,553C 223.87,558.078 222.87,563.078 221.5,568C 217.522,577.453 213.689,586.953 210,596.5C 206.713,606.824 206.713,617.158 210,627.5C 215.989,641.131 220.989,655.131 225,669.5C 229.834,691.582 225.667,711.582 212.5,729.5C 210.754,728.751 209.754,727.417 209.5,725.5C 210.866,723.63 212.033,721.63 213,719.5C 213.667,710.167 213.667,700.833 213,691.5C 207.441,672.587 199.774,654.587 190,637.5C 189.458,632.665 188.291,627.999 186.5,623.5C 185.334,613.183 185.168,602.849 186,592.5C 188.376,583.602 190.542,574.602 192.5,565.5C 188.475,566.306 184.475,567.472 180.5,569C 176.833,569.667 173.167,569.667 169.5,569C 163.826,567.666 159.826,564.499 157.5,559.5C 159.5,559.833 161.5,560.167 163.5,560.5C 162.606,556.822 162.939,553.156 164.5,549.5C 165.833,552.167 167.167,552.167 168.5,549.5C 169.938,543.156 169.605,536.989 167.5,531C 169.418,527.411 170.418,523.578 170.5,519.5C 171.5,519.5 172.5,519.5 173.5,519.5C 173.67,515.95 173.837,512.617 174,509.5C 175.677,508.484 177.343,507.484 179,506.5C 179.765,506.57 180.265,506.903 180.5,507.5C 178.045,513.362 175.878,519.362 174,525.5C 171.694,533.351 172.027,541.018 175,548.5C 180.13,551.99 185.63,552.49 191.5,550C 194.531,547.441 196.698,544.274 198,540.5C 200.049,531.409 202.383,522.409 205,513.5C 206.735,508.361 209.235,503.694 212.5,499.5 Z"/></g>
<g><path style="opacity:1" fill="#fab35e" d="M 192.5,747.5 C 181.581,755.651 169.248,760.818 155.5,763C 128.024,766.631 101.691,763.131 76.5,752.5C 77.8734,752.657 79.2068,752.49 80.5,752C 81.6853,749.222 80.6853,747.722 77.5,747.5C 73.8643,740.78 70.6977,733.78 68,726.5C 67.3333,713.5 67.3333,700.5 68,687.5C 68.5247,679.289 70.0247,671.289 72.5,663.5C 74.4154,671.742 76.7487,679.742 79.5,687.5C 82.1667,687.5 84.8333,687.5 87.5,687.5C 89.6714,677.483 91.8381,667.483 94,657.5C 99.8722,648.109 105.539,638.442 111,628.5C 112.687,613.662 115.187,598.995 118.5,584.5C 119.325,583.614 120.325,583.281 121.5,583.5C 121.169,591.528 121.502,599.528 122.5,607.5C 124.791,612.674 126.458,618.007 127.5,623.5C 128.675,623.281 129.675,623.614 130.5,624.5C 138.162,638.811 139.662,653.811 135,669.5C 131.872,680.585 130.706,691.918 131.5,703.5C 132.833,703.5 134.167,703.5 135.5,703.5C 136.028,697.409 138.361,692.075 142.5,687.5C 143.275,682.451 145.275,677.951 148.5,674C 149.348,671.23 149.681,668.397 149.5,665.5C 151.124,665.36 152.29,666.027 153,667.5C 156.915,677.942 161.582,687.942 167,697.5C 170.204,705.541 171.204,713.874 170,722.5C 169.295,727.046 168.129,731.379 166.5,735.5C 167.552,735.649 168.552,735.483 169.5,735C 170.304,733.229 171.471,731.729 173,730.5C 175.714,723.405 179.214,716.739 183.5,710.5C 184.988,708.423 186.988,707.423 189.5,707.5C 191.446,714.351 192.779,721.351 193.5,728.5C 193.609,734.247 192.276,739.58 189.5,744.5C 190.77,745.288 191.77,746.288 192.5,747.5 Z"/></g>
</svg>
