<?xml version="1.0" encoding="UTF-8"?>
<!DOCTYPE svg PUBLIC "-//W3C//DTD SVG 1.1//EN" "http://www.w3.org/Graphics/SVG/1.1/DTD/svg11.dtd">
<svg xmlns="http://www.w3.org/2000/svg" version="1.1" width="178px" height="460px" style="shape-rendering:geometricPrecision; text-rendering:geometricPrecision; image-rendering:optimizeQuality; fill-rule:evenodd; clip-rule:evenodd" xmlns:xlink="http://www.w3.org/1999/xlink">
<g><path style="opacity:0.963" fill="#f2550d" d="M 85.5,-0.5 C 87.1667,-0.5 88.8333,-0.5 90.5,-0.5C 90.523,4.87412 91.023,10.2074 92,15.5C 94.7254,25.079 98.0587,34.4123 102,43.5C 103.957,51.5089 103.957,59.5089 102,67.5C 96.7905,78.6436 92.2905,89.977 88.5,101.5C 86.3152,99.3694 84.9819,96.7028 84.5,93.5C 83.8313,95.6309 83.1646,97.6309 82.5,99.5C 83.0006,89.4972 83.1673,79.4972 83,69.5C 80.0271,57.1629 78.1937,44.6629 77.5,32C 77.2704,20.4188 79.9371,9.58543 85.5,-0.5 Z"/></g>
<g><path style="opacity:0.512" fill="#da5e24" d="M 109.5,109.5 C 107.644,106.444 106.311,103.11 105.5,99.5C 107.429,92.2077 109.263,84.8744 111,77.5C 112.011,76.6634 113.178,76.33 114.5,76.5C 114.357,78.2624 114.691,79.9291 115.5,81.5C 113.784,91.0136 111.784,100.347 109.5,109.5 Z"/></g>
<g><path style="opacity:0.651" fill="#e96327" d="M 88.5,101.5 C 87.9552,104.813 87.4552,108.146 87,111.5C 86.1207,114.346 84.4541,115.013 82,113.5C 81.1849,108.648 81.3516,103.981 82.5,99.5C 83.1646,97.6309 83.8313,95.6309 84.5,93.5C 84.9819,96.7028 86.3152,99.3694 88.5,101.5 Z"/></g>
<g><path style="opacity:1" fill="#f7771f" d="M 119.5,303.5 C 122.48,303.241 124.313,304.574 125,307.5C 129.391,322.302 134.391,336.969 140,351.5C 140.993,355.442 141.66,359.442 142,363.5C 142.4,376.178 142.066,388.845 141,401.5C 138.997,412.128 135.164,421.961 129.5,431C 130.056,432.011 130.722,432.844 131.5,433.5C 126.118,437.86 120.118,441.193 113.5,443.5C 112.737,442.732 111.737,442.232 110.5,442C 118.837,434.848 124.837,426.015 128.5,415.5C 131.813,402.281 132.313,388.948 130,375.5C 125.909,363.992 122.409,352.326 119.5,340.5C 118.178,340.33 117.011,340.663 116,341.5C 112.998,346.019 110.331,350.686 108,355.5C 107.797,358.802 106.464,361.469 104,363.5C 103.667,363.167 103.333,362.833 103,362.5C 101.259,350.396 97.9252,338.729 93,327.5C 90.4672,316.699 87.6339,306.032 84.5,295.5C 83.6927,293.02 82.026,291.687 79.5,291.5C 75.1211,307.919 71.7877,324.585 69.5,341.5C 67.2341,341.859 65.4007,341.192 64,339.5C 63.2407,333.062 61.9074,326.729 60,320.5C 58.5077,330.928 56.5077,341.262 54,351.5C 51.6086,369.762 50.9419,388.096 52,406.5C 53.0148,411.594 54.3481,416.594 56,421.5C 59.4699,425.798 62.3032,430.465 64.5,435.5C 66.9283,438.55 69.9283,440.883 73.5,442.5C 72.3881,443.265 71.7214,444.265 71.5,445.5C 64.1094,444.465 57.4427,441.799 51.5,437.5C 52.9778,437.762 54.3112,437.429 55.5,436.5C 34.9571,415.678 28.7904,391.012 37,362.5C 40.2043,351.494 43.5376,340.494 47,329.5C 47.7646,323.187 48.2646,316.854 48.5,310.5C 47.7465,300.14 46.7465,289.806 45.5,279.5C 45.8333,276.833 46.1667,274.167 46.5,271.5C 48.1925,276.87 49.8592,282.203 51.5,287.5C 54.2469,287.813 56.9135,287.48 59.5,286.5C 60.6667,284.167 61.8333,281.833 63,279.5C 66.9619,267.556 70.9619,255.556 75,243.5C 77.7856,227.452 80.7856,211.452 84,195.5C 86.2755,189.781 89.4421,184.615 93.5,180C 94.7932,179.51 96.1266,179.343 97.5,179.5C 97.6615,201.905 96.4948,224.239 94,246.5C 93.3333,258.833 93.3333,271.167 94,283.5C 96.1878,296.785 101.021,308.951 108.5,320C 110.594,320.445 112.094,319.612 113,317.5C 116.362,313.378 118.529,308.711 119.5,303.5 Z"/></g>
<g><path style="opacity:0.999" fill="#f3550b" d="M 105.5,99.5 C 106.311,103.11 107.644,106.444 109.5,109.5C 107.922,119.791 106.589,130.124 105.5,140.5C 107.378,154.68 110.211,168.68 114,182.5C 115.447,190.964 116.614,199.464 117.5,208C 114.589,226.139 111.923,244.306 109.5,262.5C 109.447,269.567 110.78,276.234 113.5,282.5C 114.485,288.041 115.152,288.375 115.5,283.5C 115.5,279.167 115.5,274.833 115.5,270.5C 116.15,270.804 116.817,271.137 117.5,271.5C 119.14,278.185 118.307,284.518 115,290.5C 114.444,288.405 113.944,288.238 113.5,290C 114.988,291.988 116.654,293.821 118.5,295.5C 118.952,286.725 119.952,278.059 121.5,269.5C 120.56,266.868 120.393,264.202 121,261.5C 122.101,263.394 123.434,264.061 125,263.5C 126.184,267.449 126.518,271.449 126,275.5C 123.762,276.738 122.262,278.571 121.5,281C 123.548,283.533 124.881,286.366 125.5,289.5C 126.675,289.719 127.675,289.386 128.5,288.5C 129.085,285.497 129.752,282.497 130.5,279.5C 131.5,282.5 132.5,285.5 133.5,288.5C 133.279,291.943 132.279,292.276 130.5,289.5C 129.223,291.63 129.723,293.296 132,294.5C 133.183,293.269 134.349,293.269 135.5,294.5C 134.311,295.429 132.978,295.762 131.5,295.5C 131.799,297.604 131.466,299.604 130.5,301.5C 129.522,301.023 128.689,300.357 128,299.5C 127.43,302.844 126.264,303.177 124.5,300.5C 123.497,302.542 122.163,302.875 120.5,301.5C 119.702,301.957 119.369,302.624 119.5,303.5C 118.529,308.711 116.362,313.378 113,317.5C 112.094,319.612 110.594,320.445 108.5,320C 101.021,308.951 96.1878,296.785 94,283.5C 93.3333,271.167 93.3333,258.833 94,246.5C 96.4948,224.239 97.6615,201.905 97.5,179.5C 96.1266,179.343 94.7932,179.51 93.5,180C 89.4421,184.615 86.2755,189.781 84,195.5C 80.7856,211.452 77.7856,227.452 75,243.5C 70.9619,255.556 66.9619,267.556 63,279.5C 61.8333,281.833 60.6667,284.167 59.5,286.5C 56.9135,287.48 54.2469,287.813 51.5,287.5C 49.8592,282.203 48.1925,276.87 46.5,271.5C 46.1667,274.167 45.8333,276.833 45.5,279.5C 46.7465,289.806 47.7465,300.14 48.5,310.5C 48.2646,316.854 47.7646,323.187 47,329.5C 43.5376,340.494 40.2043,351.494 37,362.5C 28.7904,391.012 34.9571,415.678 55.5,436.5C 54.3112,437.429 52.9778,437.762 51.5,437.5C 33.3196,427.476 21.1529,412.476 15,392.5C 11.7261,377.846 11.7261,363.179 15,348.5C 19.4497,335.034 23.1163,321.367 26,307.5C 26.6658,288.806 26.1658,270.139 24.5,251.5C 25.0325,241.472 26.6992,231.638 29.5,222C 34.1397,208.552 38.6397,195.052 43,181.5C 44.0495,180.483 45.2161,180.316 46.5,181C 47.9591,184.827 48.6257,188.827 48.5,193C 46.1284,210.198 48.4617,226.698 55.5,242.5C 56.9933,246.412 57.6599,246.079 57.5,241.5C 60.3015,219.379 62.4681,197.046 64,174.5C 64.2685,169.35 65.2685,164.35 67,159.5C 74.3949,145.106 83.7283,132.106 95,120.5C 99.0733,113.687 102.573,106.687 105.5,99.5 Z"/></g>
<g><path style="opacity:1" fill="#ef5612" d="M 137.5,190.5 C 143.958,191.407 146.458,195.073 145,201.5C 139.936,208.903 135.27,216.57 131,224.5C 130.667,226.5 130.333,228.5 130,230.5C 128.062,231.86 126.396,231.527 125,229.5C 120.913,218.202 122.08,207.536 128.5,197.5C 131.016,194.386 134.016,192.053 137.5,190.5 Z"/></g>
<g><path style="opacity:0.004" fill="#fefffe" d="M 57.5,241.5 C 57.6599,246.079 56.9933,246.412 55.5,242.5C 56.1667,242.167 56.8333,241.833 57.5,241.5 Z"/></g>
<g><path style="opacity:0.005" fill="#fefffe" d="M 115.5,283.5 C 115.152,288.375 114.485,288.041 113.5,282.5C 113.435,282.062 113.601,281.728 114,281.5C 114.278,282.416 114.778,283.082 115.5,283.5 Z"/></g>
<g><path style="opacity:1" fill="#f2550c" d="M 156.5,330.5 C 153.064,332.077 152.564,334.41 155,337.5C 156.061,354.951 155.561,372.284 153.5,389.5C 154.5,389.5 155.5,389.5 156.5,389.5C 152.798,406.915 144.465,421.582 131.5,433.5C 130.722,432.844 130.056,432.011 129.5,431C 135.164,421.961 138.997,412.128 141,401.5C 142.066,388.845 142.4,376.178 142,363.5C 141.66,359.442 140.993,355.442 140,351.5C 134.391,336.969 129.391,322.302 125,307.5C 124.313,304.574 122.48,303.241 119.5,303.5C 119.369,302.624 119.702,301.957 120.5,301.5C 122.163,302.875 123.497,302.542 124.5,300.5C 126.264,303.177 127.43,302.844 128,299.5C 128.689,300.357 129.522,301.023 130.5,301.5C 131.466,299.604 131.799,297.604 131.5,295.5C 132.978,295.762 134.311,295.429 135.5,294.5C 134.349,293.269 133.183,293.269 132,294.5C 129.723,293.296 129.223,291.63 130.5,289.5C 132.279,292.276 133.279,291.943 133.5,288.5C 132.5,285.5 131.5,282.5 130.5,279.5C 129.752,282.497 129.085,285.497 128.5,288.5C 127.675,289.386 126.675,289.719 125.5,289.5C 124.881,286.366 123.548,283.533 121.5,281C 122.262,278.571 123.762,276.738 126,275.5C 126.518,271.449 126.184,267.449 125,263.5C 123.434,264.061 122.101,263.394 121,261.5C 120.393,264.202 120.56,266.868 121.5,269.5C 119.952,278.059 118.952,286.725 118.5,295.5C 116.654,293.821 114.988,291.988 113.5,290C 113.944,288.238 114.444,288.405 115,290.5C 118.307,284.518 119.14,278.185 117.5,271.5C 116.817,271.137 116.15,270.804 115.5,270.5C 116.489,259.068 118.823,247.901 122.5,237C 123.549,236.508 124.549,236.674 125.5,237.5C 127.688,241.23 129.188,245.23 130,249.5C 130.803,257.066 131.97,264.566 133.5,272C 138.257,283.015 143.424,293.849 149,304.5C 152.225,313.004 154.725,321.671 156.5,330.5 Z"/></g>
<g><path style="opacity:1" fill="#fa9f32" d="M 113.5,443.5 C 111.254,444.455 108.921,445.122 106.5,445.5C 105.828,444.733 104.995,444.066 104,443.5C 103.333,442.833 103.333,442.167 104,441.5C 106.287,437.754 109.121,434.421 112.5,431.5C 114.758,426.643 116.758,421.643 118.5,416.5C 119.325,415.614 120.325,415.281 121.5,415.5C 122.01,407.945 121.344,400.611 119.5,393.5C 114.264,392.195 108.93,391.362 103.5,391C 103,390.5 102.5,390 102,389.5C 99.9801,382.093 97.6467,374.76 95,367.5C 93.6487,365.981 92.1487,364.648 90.5,363.5C 88.1045,365.944 85.9378,368.61 84,371.5C 80.9413,378.401 79.108,385.734 78.5,393.5C 77.1667,395.5 75.8333,397.5 74.5,399.5C 69.5,399.833 66.8333,402.5 66.5,407.5C 67.2685,411.445 67.7685,415.445 68,419.5C 70.3467,423.191 71.8467,427.191 72.5,431.5C 76.6821,435.515 80.6821,439.682 84.5,444C 87.6946,444.181 90.6946,444.681 93.5,445.5C 86.1667,445.5 78.8333,445.5 71.5,445.5C 71.7214,444.265 72.3881,443.265 73.5,442.5C 69.9283,440.883 66.9283,438.55 64.5,435.5C 62.3032,430.465 59.4699,425.798 56,421.5C 54.3481,416.594 53.0148,411.594 52,406.5C 50.9419,388.096 51.6086,369.762 54,351.5C 56.5077,341.262 58.5077,330.928 60,320.5C 61.9074,326.729 63.2407,333.062 64,339.5C 65.4007,341.192 67.2341,341.859 69.5,341.5C 71.7877,324.585 75.1211,307.919 79.5,291.5C 82.026,291.687 83.6927,293.02 84.5,295.5C 87.6339,306.032 90.4672,316.699 93,327.5C 97.9252,338.729 101.259,350.396 103,362.5C 103.333,362.833 103.667,363.167 104,363.5C 106.464,361.469 107.797,358.802 108,355.5C 110.331,350.686 112.998,346.019 116,341.5C 117.011,340.663 118.178,340.33 119.5,340.5C 122.409,352.326 125.909,363.992 130,375.5C 132.313,388.948 131.813,402.281 128.5,415.5C 124.837,426.015 118.837,434.848 110.5,442C 111.737,442.232 112.737,442.732 113.5,443.5 Z"/></g>
<g><path style="opacity:0.592" fill="#f26b29" d="M 156.5,330.5 C 157.833,350.167 157.833,369.833 156.5,389.5C 155.5,389.5 154.5,389.5 153.5,389.5C 155.561,372.284 156.061,354.951 155,337.5C 152.564,334.41 153.064,332.077 156.5,330.5 Z"/></g>
<g><path style="opacity:1" fill="#fab45e" d="M 106.5,445.5 C 102.167,445.5 97.8333,445.5 93.5,445.5C 90.6946,444.681 87.6946,444.181 84.5,444C 80.6821,439.682 76.6821,435.515 72.5,431.5C 71.8467,427.191 70.3467,423.191 68,419.5C 67.7685,415.445 67.2685,411.445 66.5,407.5C 66.8333,402.5 69.5,399.833 74.5,399.5C 75.8333,397.5 77.1667,395.5 78.5,393.5C 79.108,385.734 80.9413,378.401 84,371.5C 85.9378,368.61 88.1045,365.944 90.5,363.5C 92.1487,364.648 93.6487,365.981 95,367.5C 97.6467,374.76 99.9801,382.093 102,389.5C 102.5,390 103,390.5 103.5,391C 108.93,391.362 114.264,392.195 119.5,393.5C 121.344,400.611 122.01,407.945 121.5,415.5C 120.325,415.281 119.325,415.614 118.5,416.5C 116.758,421.643 114.758,426.643 112.5,431.5C 109.121,434.421 106.287,437.754 104,441.5C 103.333,442.167 103.333,442.833 104,443.5C 104.995,444.066 105.828,444.733 106.5,445.5 Z"/></g>
</svg>
