<?xml version="1.0" encoding="UTF-8"?>
<!DOCTYPE svg PUBLIC "-//W3C//DTD SVG 1.1//EN" "http://www.w3.org/Graphics/SVG/1.1/DTD/svg11.dtd">
<svg xmlns="http://www.w3.org/2000/svg" version="1.1" width="206px" height="340px" style="shape-rendering:geometricPrecision; text-rendering:geometricPrecision; image-rendering:optimizeQuality; fill-rule:evenodd; clip-rule:evenodd" xmlns:xlink="http://www.w3.org/1999/xlink">
<g><path style="opacity:0.086" fill="#ffbea6" d="M 89.5,9.5 C 89.7678,11.099 89.4345,12.4324 88.5,13.5C 87.5,12.1667 86.5,12.1667 85.5,13.5C 78.7745,18.7285 73.2745,25.0618 69,32.5C 67.2884,38.1454 67.1217,43.8121 68.5,49.5C 67.8333,49.5 67.1667,49.5 66.5,49.5C 66.5,49.1667 66.5,48.8333 66.5,48.5C 66.5,44.1667 66.5,39.8333 66.5,35.5C 67.3802,31.9208 68.8802,28.5875 71,25.5C 76.1667,20.3333 81.3333,15.1667 86.5,10C 87.448,9.51722 88.448,9.35055 89.5,9.5 Z"/></g>
<g><path style="opacity:0.998" fill="#f5550c" d="M 85.5,13.5 C 86.5862,13.62 87.2528,14.2867 87.5,15.5C 86.3648,21.6928 86.6981,27.6928 88.5,33.5C 88.8984,37.7607 89.8984,41.7607 91.5,45.5C 92.4345,46.5676 92.7678,47.901 92.5,49.5C 92.5,55.1667 92.5,60.8333 92.5,66.5C 89.4485,70.2229 86.7819,74.2229 84.5,78.5C 82.6854,79.6298 80.6854,80.2964 78.5,80.5C 78.346,71.509 75.846,63.1757 71,55.5C 70.3292,54.7476 69.4959,54.4142 68.5,54.5C 68.5,54.1667 68.5,53.8333 68.5,53.5C 68.5,52.1667 68.5,50.8333 68.5,49.5C 67.1217,43.8121 67.2884,38.1454 69,32.5C 73.2745,25.0618 78.7745,18.7285 85.5,13.5 Z"/></g>
<g><path style="opacity:0.013" fill="#fffcf8" d="M 89.5,9.5 C 89.7491,15.9655 89.7491,22.6322 89.5,29.5C 89.1667,29.5 88.8333,29.5 88.5,29.5C 88.5,24.1667 88.5,18.8333 88.5,13.5C 89.4345,12.4324 89.7678,11.099 89.5,9.5 Z"/></g>
<g><path style="opacity:0.249" fill="#f98454" d="M 85.5,13.5 C 86.5,12.1667 87.5,12.1667 88.5,13.5C 88.5,18.8333 88.5,24.1667 88.5,29.5C 88.5,30.8333 88.5,32.1667 88.5,33.5C 86.6981,27.6928 86.3648,21.6928 87.5,15.5C 87.2528,14.2867 86.5862,13.62 85.5,13.5 Z"/></g>
<g><path style="opacity:0.761" fill="#ffbda2" d="M 88.5,29.5 C 88.8333,29.5 89.1667,29.5 89.5,29.5C 90.7934,32.6791 91.4601,36.0124 91.5,39.5C 91.5,41.5 91.5,43.5 91.5,45.5C 89.8984,41.7607 88.8984,37.7607 88.5,33.5C 88.5,32.1667 88.5,30.8333 88.5,29.5 Z"/></g>
<g><path style="opacity:0.055" fill="#ffebea" d="M 66.5,35.5 C 66.5,39.8333 66.5,44.1667 66.5,48.5C 63.8333,44.1667 63.8333,39.8333 66.5,35.5 Z"/></g>
<g><path style="opacity:0.013" fill="#feebe4" d="M 110.5,56.5 C 109.132,54.4357 108.132,52.1024 107.5,49.5C 106.893,49.6236 106.56,49.9569 106.5,50.5C 106.5,51.8333 105.833,52.5 104.5,52.5C 104.275,50.2841 105.108,48.6174 107,47.5C 109.338,49.9611 110.505,52.9611 110.5,56.5 Z"/></g>
<g><path style="opacity:0.035" fill="#fff8f7" d="M 66.5,49.5 C 67.1667,49.5 67.8333,49.5 68.5,49.5C 68.5,50.8333 68.5,52.1667 68.5,53.5C 66.8958,52.713 66.2291,51.3797 66.5,49.5 Z"/></g>
<g><path style="opacity:0.009" fill="#ffede7" d="M 91.5,39.5 C 93.9614,45.1273 95.2948,51.1273 95.5,57.5C 95.7259,61.9308 94.7259,65.9308 92.5,69.5C 92.5,68.5 92.5,67.5 92.5,66.5C 94.9819,60.8543 94.9819,55.1876 92.5,49.5C 92.7678,47.901 92.4345,46.5676 91.5,45.5C 91.5,43.5 91.5,41.5 91.5,39.5 Z"/></g>
<g><path style="opacity:0.999" fill="#f5540b" d="M 106.5,50.5 C 107.239,54.0449 108.572,57.3783 110.5,60.5C 111.167,60.8333 111.833,61.1667 112.5,61.5C 112.232,63.099 112.566,64.4324 113.5,65.5C 113.414,66.4959 113.748,67.3292 114.5,68C 117.843,70.4016 121.176,72.735 124.5,75C 127.64,78.1396 130.806,81.3063 134,84.5C 138.619,90.4212 142.119,96.7545 144.5,103.5C 144.824,110.354 144.491,117.021 143.5,123.5C 140.831,128.324 139.831,133.657 140.5,139.5C 139.549,140.919 139.216,142.585 139.5,144.5C 138.072,149.088 137.405,153.921 137.5,159C 137.502,162.021 137.836,164.854 138.5,167.5C 139.768,169.905 140.435,172.572 140.5,175.5C 146.398,188.394 152.731,201.061 159.5,213.5C 161.325,219.134 162.991,224.8 164.5,230.5C 165.332,240.476 165.666,250.476 165.5,260.5C 165.152,264.557 164.486,268.557 163.5,272.5C 159.968,279.877 156.135,287.211 152,294.5C 147.258,300.734 142.091,306.4 136.5,311.5C 135.128,312.512 133.795,313.512 132.5,314.5C 130.297,314.604 128.297,315.27 126.5,316.5C 126.328,315.508 126.662,314.842 127.5,314.5C 132.172,311.994 135.672,308.327 138,303.5C 148.864,282.798 152.864,260.798 150,237.5C 147.998,230.162 145.998,222.829 144,215.5C 136.742,201.914 129.076,188.581 121,175.5C 119.665,170.147 118.332,164.814 117,159.5C 116.667,147.167 116.333,134.833 116,122.5C 111.569,132.453 107.903,142.786 105,153.5C 103.341,160.006 99.8408,165.173 94.5,169C 91.7202,169.269 89.5536,168.102 88,165.5C 87.1322,161.73 85.9655,158.064 84.5,154.5C 83.3333,156.167 82.1667,157.833 81,159.5C 75.5666,173.561 70.8999,187.894 67,202.5C 62.0835,212.006 56.4168,221.006 50,229.5C 43.8985,239.135 41.0651,249.635 41.5,261C 41.2076,282.413 48.8743,300.413 64.5,315C 64.2716,315.399 63.9382,315.565 63.5,315.5C 61.2018,313.539 58.5351,312.539 55.5,312.5C 31.784,292.03 21.6173,266.03 25,234.5C 25.7552,223.48 28.0885,212.814 32,202.5C 34.7771,196.613 37.2771,190.613 39.5,184.5C 43.3,182.247 45.6333,178.913 46.5,174.5C 50.7708,170.605 53.2708,165.605 54,159.5C 54.4997,151.173 54.6664,142.84 54.5,134.5C 55.3069,130.979 55.9736,127.312 56.5,123.5C 56.5,121.5 56.5,119.5 56.5,117.5C 56.5,116.833 56.5,116.167 56.5,115.5C 58.9667,111.649 60.8001,107.316 62,102.5C 64.4262,99.3088 66.5928,95.9754 68.5,92.5C 71.7133,89.7256 75.38,87.7256 79.5,86.5C 78.7784,91.4893 78.6117,96.4893 79,101.5C 79.3826,102.056 79.8826,102.389 80.5,102.5C 80.33,103.822 80.6634,104.989 81.5,106C 83.8098,106.497 86.1432,106.663 88.5,106.5C 94.2173,104.07 97.2173,99.7368 97.5,93.5C 97.5,93.1667 97.5,92.8333 97.5,92.5C 99.977,90.5841 100.977,87.9175 100.5,84.5C 101.706,74.2846 103.04,63.9512 104.5,53.5C 104.5,53.1667 104.5,52.8333 104.5,52.5C 105.833,52.5 106.5,51.8333 106.5,50.5 Z"/></g>
<g><path style="opacity:0.643" fill="#fc9972" d="M 106.5,50.5 C 106.56,49.9569 106.893,49.6236 107.5,49.5C 108.132,52.1024 109.132,54.4357 110.5,56.5C 110.5,57.8333 110.5,59.1667 110.5,60.5C 108.572,57.3783 107.239,54.0449 106.5,50.5 Z"/></g>
<g><path style="opacity:0.141" fill="#ffcdbb" d="M 104.5,53.5 C 103.04,63.9512 101.706,74.2846 100.5,84.5C 100.5,80.1667 100.5,75.8333 100.5,71.5C 100.335,68.1501 100.502,64.8168 101,61.5C 101.322,58.3337 102.489,55.667 104.5,53.5 Z"/></g>
<g><path style="opacity:0.118" fill="#fde8e1" d="M 110.5,56.5 C 111.931,57.7804 112.598,59.4471 112.5,61.5C 111.833,61.1667 111.167,60.8333 110.5,60.5C 110.5,59.1667 110.5,57.8333 110.5,56.5 Z"/></g>
<g><path style="opacity:0.439" fill="#f98f65" d="M 92.5,49.5 C 94.9819,55.1876 94.9819,60.8543 92.5,66.5C 92.5,60.8333 92.5,55.1667 92.5,49.5 Z"/></g>
<g><path style="opacity:0.075" fill="#fccec0" d="M 112.5,61.5 C 113.89,62.8993 114.89,64.5659 115.5,66.5C 114.833,66.1667 114.167,65.8333 113.5,65.5C 112.566,64.4324 112.232,63.099 112.5,61.5 Z"/></g>
<g><path style="opacity:0.006" fill="#ffecdf" d="M 100.5,71.5 C 100.5,75.8333 100.5,80.1667 100.5,84.5C 100.977,87.9175 99.977,90.5841 97.5,92.5C 98.9527,85.4672 99.9527,78.4672 100.5,71.5 Z"/></g>
<g><path style="opacity:0.173" fill="#ffc0a8" d="M 113.5,65.5 C 114.167,65.8333 114.833,66.1667 115.5,66.5C 126.387,73.0357 135.22,81.7023 142,92.5C 143.43,95.3527 144.263,98.3527 144.5,101.5C 144.5,102.167 144.5,102.833 144.5,103.5C 142.119,96.7545 138.619,90.4212 134,84.5C 130.806,81.3063 127.64,78.1396 124.5,75C 121.176,72.735 117.843,70.4016 114.5,68C 113.748,67.3292 113.414,66.4959 113.5,65.5 Z"/></g>
<g><path style="opacity:0.18" fill="#ffb496" d="M 92.5,66.5 C 92.5,67.5 92.5,68.5 92.5,69.5C 91.3105,73.026 89.3105,76.026 86.5,78.5C 85.8333,78.5 85.1667,78.5 84.5,78.5C 86.7819,74.2229 89.4485,70.2229 92.5,66.5 Z"/></g>
<g><path style="opacity:0.196" fill="#ffd0be" d="M 68.5,54.5 C 69.4959,54.4142 70.3292,54.7476 71,55.5C 75.846,63.1757 78.346,71.509 78.5,80.5C 80.6854,80.2964 82.6854,79.6298 84.5,78.5C 85.1667,78.5 85.8333,78.5 86.5,78.5C 83.842,81.4226 80.6754,82.756 77,82.5C 76.4971,77.8097 75.8304,73.143 75,68.5C 72.5647,63.9624 70.398,59.2957 68.5,54.5 Z"/></g>
<g><path style="opacity:0.035" fill="#ffe0d8" d="M 47.5,80.5 C 46.3478,79.375 45.3478,79.375 44.5,80.5C 43.8333,80.5 43.1667,80.5 42.5,80.5C 42.7869,78.8793 43.7869,77.8793 45.5,77.5C 46.9185,78.0047 47.5852,79.0047 47.5,80.5 Z"/></g>
<g><path style="opacity:0.997" fill="#f55813" d="M 47.5,80.5 C 47.6775,81.6948 48.0109,82.8615 48.5,84C 51.0099,86.9394 53.3432,89.9394 55.5,93C 57.9974,102.996 54.3308,106.163 44.5,102.5C 44.5,102.167 44.5,101.833 44.5,101.5C 44.7845,99.5853 44.4511,97.9187 43.5,96.5C 43.2665,91.1053 43.5998,85.772 44.5,80.5C 45.3478,79.375 46.3478,79.375 47.5,80.5 Z"/></g>
<g><path style="opacity:0.22" fill="#ffd0bd" d="M 80.5,93.5 C 80.8016,90.9407 80.4682,88.6074 79.5,86.5C 75.38,87.7256 71.7133,89.7256 68.5,92.5C 68.8588,90.629 69.8588,89.129 71.5,88C 73.9902,86.851 76.4902,85.6844 79,84.5C 80.6217,84.9541 81.7884,85.9541 82.5,87.5C 81.9495,89.6568 81.2829,91.6568 80.5,93.5 Z"/></g>
<g><path style="opacity:0.122" fill="#ffe4da" d="M 42.5,80.5 C 42.1786,86.0262 42.5119,91.3595 43.5,96.5C 44.4511,97.9187 44.7845,99.5853 44.5,101.5C 43.0337,100.653 42.2004,99.3197 42,97.5C 39.8765,91.6294 40.0431,85.9628 42.5,80.5 Z"/></g>
<g><path style="opacity:0.574" fill="#fa8e65" d="M 42.5,80.5 C 43.1667,80.5 43.8333,80.5 44.5,80.5C 43.5998,85.772 43.2665,91.1053 43.5,96.5C 42.5119,91.3595 42.1786,86.0262 42.5,80.5 Z"/></g>
<g><path style="opacity:0.354" fill="#fa966c" d="M 79.5,86.5 C 80.4682,88.6074 80.8016,90.9407 80.5,93.5C 79.3187,96.3623 79.3187,99.3623 80.5,102.5C 79.8826,102.389 79.3826,102.056 79,101.5C 78.6117,96.4893 78.7784,91.4893 79.5,86.5 Z"/></g>
<g><path style="opacity:0.192" fill="#ffd3c3" d="M 68.5,92.5 C 66.5928,95.9754 64.4262,99.3088 62,102.5C 60.8001,107.316 58.9667,111.649 56.5,115.5C 57.6571,107.848 60.4905,100.848 65,94.5C 65.8159,93.1772 66.9826,92.5106 68.5,92.5 Z"/></g>
<g><path style="opacity:0.561" fill="#ffb596" d="M 97.5,93.5 C 97.2173,99.7368 94.2173,104.07 88.5,106.5C 88.5,105.833 88.5,105.167 88.5,104.5C 92.6352,101.704 95.6352,98.0376 97.5,93.5 Z"/></g>
<g><path style="opacity:0.057" fill="#ffceba" d="M 47.5,80.5 C 52.8531,85.3623 56.8531,91.1957 59.5,98C 57.3156,104.26 52.9822,106.593 46.5,105C 45.244,104.583 44.5774,103.75 44.5,102.5C 54.3308,106.163 57.9974,102.996 55.5,93C 53.3432,89.9394 51.0099,86.9394 48.5,84C 48.0109,82.8615 47.6775,81.6948 47.5,80.5 Z"/></g>
<g><path style="opacity:0.015" fill="#ffe8dd" d="M 80.5,93.5 C 80.3067,97.007 80.9733,100.34 82.5,103.5C 84.396,104.466 86.396,104.799 88.5,104.5C 88.5,105.167 88.5,105.833 88.5,106.5C 86.1432,106.663 83.8098,106.497 81.5,106C 80.6634,104.989 80.33,103.822 80.5,102.5C 79.3187,99.3623 79.3187,96.3623 80.5,93.5 Z"/></g>
<g><path style="opacity:0.22" fill="#ffe4e1" d="M 56.5,117.5 C 56.5,119.5 56.5,121.5 56.5,123.5C 55.8333,123.5 55.1667,123.5 54.5,123.5C 54.0535,120.99 54.7202,118.99 56.5,117.5 Z"/></g>
<g><path style="opacity:0.2" fill="#fb946b" d="M 54.5,123.5 C 55.1667,123.5 55.8333,123.5 56.5,123.5C 55.9736,127.312 55.3069,130.979 54.5,134.5C 54.5,131.167 54.5,127.833 54.5,124.5C 54.5,124.167 54.5,123.833 54.5,123.5 Z"/></g>
<g><path style="opacity:1" fill="#f7771f" d="M 127.5,314.5 C 135.669,296.938 137.669,278.605 133.5,259.5C 133.167,259.833 132.833,260.167 132.5,260.5C 130.554,267.058 127.554,273.058 123.5,278.5C 123.167,277 122.833,275.5 122.5,274C 123.37,265.058 124.87,256.225 127,247.5C 128.46,238.434 127.293,229.768 123.5,221.5C 119.812,216.308 116.312,210.975 113,205.5C 109.785,199.07 106.618,192.737 103.5,186.5C 101.52,189.932 100.02,193.598 99,197.5C 97.6697,207.463 96.6697,217.463 96,227.5C 95.174,232.964 93.8407,238.297 92,243.5C 90.417,246.709 87.917,247.876 84.5,247C 82.7145,243.787 81.5478,240.287 81,236.5C 78.7815,234.381 76.2815,234.048 73.5,235.5C 65.6427,243.87 59.8094,253.537 56,264.5C 54.3746,285.461 60.5413,303.627 74.5,319C 73.552,319.483 72.552,319.649 71.5,319.5C 68.6316,318.617 65.9649,317.284 63.5,315.5C 63.9382,315.565 64.2716,315.399 64.5,315C 48.8743,300.413 41.2076,282.413 41.5,261C 41.0651,249.635 43.8985,239.135 50,229.5C 56.4168,221.006 62.0835,212.006 67,202.5C 70.8999,187.894 75.5666,173.561 81,159.5C 82.1667,157.833 83.3333,156.167 84.5,154.5C 85.9655,158.064 87.1322,161.73 88,165.5C 89.5536,168.102 91.7202,169.269 94.5,169C 99.8408,165.173 103.341,160.006 105,153.5C 107.903,142.786 111.569,132.453 116,122.5C 116.333,134.833 116.667,147.167 117,159.5C 118.332,164.814 119.665,170.147 121,175.5C 129.076,188.581 136.742,201.914 144,215.5C 145.998,222.829 147.998,230.162 150,237.5C 152.864,260.798 148.864,282.798 138,303.5C 135.672,308.327 132.172,311.994 127.5,314.5 Z"/></g>
<g><path style="opacity:0.018" fill="#ffeae2" d="M 144.5,101.5 C 145.524,104.963 146.191,108.63 146.5,112.5C 144.273,128.192 141.94,143.859 139.5,159.5C 140.023,165.258 141.023,170.925 142.5,176.5C 141.833,176.167 141.167,175.833 140.5,175.5C 140.435,172.572 139.768,169.905 138.5,167.5C 138.46,159.813 138.793,152.146 139.5,144.5C 139.216,142.585 139.549,140.919 140.5,139.5C 142.246,134.428 143.246,129.095 143.5,123.5C 144.491,117.021 144.824,110.354 144.5,103.5C 144.5,102.833 144.5,102.167 144.5,101.5 Z"/></g>
<g><path style="opacity:0.932" fill="#fa8554" d="M 143.5,123.5 C 143.246,129.095 142.246,134.428 140.5,139.5C 139.831,133.657 140.831,128.324 143.5,123.5 Z"/></g>
<g><path style="opacity:0.286" fill="#f98d5e" d="M 139.5,144.5 C 138.793,152.146 138.46,159.813 138.5,167.5C 137.836,164.854 137.502,162.021 137.5,159C 137.405,153.921 138.072,149.088 139.5,144.5 Z"/></g>
<g><path style="opacity:0.047" fill="#fedacc" d="M 54.5,124.5 C 54.5,127.833 54.5,131.167 54.5,134.5C 54.6664,142.84 54.4997,151.173 54,159.5C 53.2708,165.605 50.7708,170.605 46.5,174.5C 47.7734,171.391 49.2734,168.391 51,165.5C 51.8085,151.647 52.9752,137.98 54.5,124.5 Z"/></g>
<g><path style="opacity:0.043" fill="#ffd7c2" d="M 46.5,174.5 C 45.6333,178.913 43.3,182.247 39.5,184.5C 41.0621,180.608 43.3954,177.275 46.5,174.5 Z"/></g>
<g><path style="opacity:0.31" fill="#ffbea3" d="M 140.5,175.5 C 141.167,175.833 141.833,176.167 142.5,176.5C 149.544,189.585 156.377,202.918 163,216.5C 165.259,222.293 166.425,228.293 166.5,234.5C 165.833,233.167 165.167,231.833 164.5,230.5C 162.991,224.8 161.325,219.134 159.5,213.5C 152.731,201.061 146.398,188.394 140.5,175.5 Z"/></g>
<g><path style="opacity:1" fill="#f99f31" d="M 127.5,314.5 C 126.662,314.842 126.328,315.508 126.5,316.5C 125.128,317.512 123.795,318.512 122.5,319.5C 121.761,319.631 121.094,319.464 120.5,319C 123.732,306.884 120.732,296.55 111.5,288C 110.127,287.125 108.627,286.625 107,286.5C 100.539,288.321 94.3721,290.821 88.5,294C 84.5787,294.203 80.7454,294.703 77,295.5C 75.0475,299.304 74.3809,303.304 75,307.5C 77.3251,312.82 80.1584,317.82 83.5,322.5C 80.2356,321.676 76.9023,321.342 73.5,321.5C 72.8333,320.833 72.1667,320.167 71.5,319.5C 72.552,319.649 73.552,319.483 74.5,319C 60.5413,303.627 54.3746,285.461 56,264.5C 59.8094,253.537 65.6427,243.87 73.5,235.5C 76.2815,234.048 78.7815,234.381 81,236.5C 81.5478,240.287 82.7145,243.787 84.5,247C 87.917,247.876 90.417,246.709 92,243.5C 93.8407,238.297 95.174,232.964 96,227.5C 96.6697,217.463 97.6697,207.463 99,197.5C 100.02,193.598 101.52,189.932 103.5,186.5C 106.618,192.737 109.785,199.07 113,205.5C 116.312,210.975 119.812,216.308 123.5,221.5C 127.293,229.768 128.46,238.434 127,247.5C 124.87,256.225 123.37,265.058 122.5,274C 122.833,275.5 123.167,277 123.5,278.5C 127.554,273.058 130.554,267.058 132.5,260.5C 132.833,260.167 133.167,259.833 133.5,259.5C 137.669,278.605 135.669,296.938 127.5,314.5 Z"/></g>
<g><path style="opacity:0.599" fill="#fa9167" d="M 164.5,230.5 C 165.167,231.833 165.833,233.167 166.5,234.5C 166.5,243.167 166.5,251.833 166.5,260.5C 166.167,260.5 165.833,260.5 165.5,260.5C 165.666,250.476 165.332,240.476 164.5,230.5 Z"/></g>
<g><path style="opacity:0.014" fill="#ffece7" d="M 165.5,260.5 C 165.833,260.5 166.167,260.5 166.5,260.5C 166.728,264.924 165.728,268.924 163.5,272.5C 164.486,268.557 165.152,264.557 165.5,260.5 Z"/></g>
<g><path style="opacity:0.165" fill="#ffccb8" d="M 39.5,184.5 C 37.2771,190.613 34.7771,196.613 32,202.5C 28.0885,212.814 25.7552,223.48 25,234.5C 21.6173,266.03 31.784,292.03 55.5,312.5C 36.7536,299.873 25.9203,282.206 23,259.5C 20.662,239.897 22.9953,220.897 30,202.5C 32.6997,196.218 35.8663,190.218 39.5,184.5 Z"/></g>
<g><path style="opacity:0.294" fill="#ffc0aa" d="M 163.5,272.5 C 159.956,288.031 151.956,300.698 139.5,310.5C 138.391,310.557 137.391,310.89 136.5,311.5C 142.091,306.4 147.258,300.734 152,294.5C 156.135,287.211 159.968,279.877 163.5,272.5 Z"/></g>
<g><path style="opacity:1" fill="#fab35e" d="M 122.5,319.5 C 122.167,320.167 121.833,320.833 121.5,321.5C 120.167,321.5 118.833,321.5 117.5,321.5C 106.218,323.649 94.8844,323.983 83.5,322.5C 80.1584,317.82 77.3251,312.82 75,307.5C 74.3809,303.304 75.0475,299.304 77,295.5C 80.7454,294.703 84.5787,294.203 88.5,294C 94.3721,290.821 100.539,288.321 107,286.5C 108.627,286.625 110.127,287.125 111.5,288C 120.732,296.55 123.732,306.884 120.5,319C 121.094,319.464 121.761,319.631 122.5,319.5 Z"/></g>
<g><path style="opacity:0.004" fill="#ffe1d9" d="M 139.5,310.5 C 138.008,313.323 135.674,314.99 132.5,315.5C 132.5,315.167 132.5,314.833 132.5,314.5C 133.795,313.512 135.128,312.512 136.5,311.5C 137.391,310.89 138.391,310.557 139.5,310.5 Z"/></g>
<g><path style="opacity:0.369" fill="#feaf82" d="M 132.5,314.5 C 132.5,314.833 132.5,315.167 132.5,315.5C 131.101,316.89 129.434,317.89 127.5,318.5C 125.883,319.038 124.216,319.371 122.5,319.5C 123.795,318.512 125.128,317.512 126.5,316.5C 128.297,315.27 130.297,314.604 132.5,314.5 Z"/></g>
<g><path style="opacity:0.235" fill="#ffcbb5" d="M 55.5,312.5 C 58.5351,312.539 61.2018,313.539 63.5,315.5C 65.9649,317.284 68.6316,318.617 71.5,319.5C 72.1667,320.167 72.8333,320.833 73.5,321.5C 66.6346,320.067 60.6346,317.067 55.5,312.5 Z"/></g>
<g><path style="opacity:0.024" fill="#fffaf5" d="M 127.5,318.5 C 125.967,320.245 123.967,321.245 121.5,321.5C 121.833,320.833 122.167,320.167 122.5,319.5C 124.216,319.371 125.883,319.038 127.5,318.5 Z"/></g>
<g><path style="opacity:0.02" fill="#fef8f6" d="M 117.5,321.5 C 118.833,321.5 120.167,321.5 121.5,321.5C 118.201,323.483 114.534,324.483 110.5,324.5C 112.888,323.651 115.221,322.651 117.5,321.5 Z"/></g>
<g><path style="opacity:0.278" fill="#febd87" d="M 73.5,321.5 C 76.9023,321.342 80.2356,321.676 83.5,322.5C 94.8844,323.983 106.218,323.649 117.5,321.5C 115.221,322.651 112.888,323.651 110.5,324.5C 100.494,324.666 90.4944,324.5 80.5,324C 77.8958,323.61 75.5625,322.776 73.5,321.5 Z"/></g>
</svg>
