<?xml version="1.0" encoding="UTF-8"?>
<!DOCTYPE svg PUBLIC "-//W3C//DTD SVG 1.1//EN" "http://www.w3.org/Graphics/SVG/1.1/DTD/svg11.dtd">
<svg xmlns="http://www.w3.org/2000/svg" version="1.1" width="201px" height="538px" style="shape-rendering:geometricPrecision; text-rendering:geometricPrecision; image-rendering:optimizeQuality; fill-rule:evenodd; clip-rule:evenodd" xmlns:xlink="http://www.w3.org/1999/xlink">
<g><path style="opacity:1" fill="#f67620" d="M 153.5,184.5 C 152.439,187.511 151.273,190.511 150,193.5C 149.261,194.574 148.261,195.241 147,195.5C 144.97,192.787 143.304,189.787 142,186.5C 135.964,179.779 128.464,177.279 119.5,179C 107.185,181.99 97.6854,188.823 91,199.5C 86.9587,210.628 81.9587,221.294 76,231.5C 71.9588,235.765 67.4588,239.432 62.5,242.5C 61.914,242.291 61.414,241.957 61,241.5C 60.5045,239.527 60.3379,237.527 60.5,235.5C 67.2575,236.746 70.2575,233.746 69.5,226.5C 69.3333,224.167 69.1667,221.833 69,219.5C 65.7676,211.699 63.101,203.699 61,195.5C 60.0165,189.295 60.6831,183.295 63,177.5C 65.6567,173.315 67.8234,173.648 69.5,178.5C 71.5,179.833 73.5,179.833 75.5,178.5C 78.1769,176.155 80.5103,173.488 82.5,170.5C 86.3735,162.791 90.8735,155.457 96,148.5C 110.79,136.795 121.623,139.795 128.5,157.5C 134.233,163.228 139.567,169.228 144.5,175.5C 145.561,180.209 146.728,184.876 148,189.5C 149.156,190.993 149.99,190.826 150.5,189C 149.767,187.234 149.433,185.401 149.5,183.5C 150.959,183.433 152.292,183.766 153.5,184.5 Z"/></g>
<g><path style="opacity:1" fill="#f3540b" d="M 153.5,184.5 C 152.292,183.766 150.959,183.433 149.5,183.5C 149.433,185.401 149.767,187.234 150.5,189C 149.99,190.826 149.156,190.993 148,189.5C 146.728,184.876 145.561,180.209 144.5,175.5C 139.567,169.228 134.233,163.228 128.5,157.5C 121.623,139.795 110.79,136.795 96,148.5C 90.8735,155.457 86.3735,162.791 82.5,170.5C 80.5103,173.488 78.1769,176.155 75.5,178.5C 73.5,179.833 71.5,179.833 69.5,178.5C 67.8234,173.648 65.6567,173.315 63,177.5C 60.6831,183.295 60.0165,189.295 61,195.5C 63.101,203.699 65.7676,211.699 69,219.5C 69.1667,221.833 69.3333,224.167 69.5,226.5C 70.2575,233.746 67.2575,236.746 60.5,235.5C 55.7327,223.967 49.8993,212.967 43,202.5C 42.3718,198.285 41.5384,194.118 40.5,190C 42.5603,177.222 48.5603,166.555 58.5,158C 66.8333,152.167 75.1667,146.333 83.5,140.5C 92.2764,129.554 101.61,119.054 111.5,109C 113.332,108.252 114.999,107.252 116.5,106C 118.473,105.505 120.473,105.338 122.5,105.5C 119.783,112.284 119.95,118.95 123,125.5C 131.188,133.074 138.855,141.074 146,149.5C 152.985,160.245 155.485,171.912 153.5,184.5 Z"/></g>
<g><path style="opacity:1" fill="#ed5814" d="M 124.5,202.5 C 128.35,202.178 131.517,203.511 134,206.5C 139.906,215.323 140.906,224.656 137,234.5C 135.803,237.089 134.803,239.756 134,242.5C 132.89,244.037 131.39,244.703 129.5,244.5C 126.404,235.642 122.238,227.309 117,219.5C 116.333,215.833 116.333,212.167 117,208.5C 119.114,205.879 121.614,203.879 124.5,202.5 Z"/></g>
<g><path style="opacity:1" fill="#f3550b" d="M 155.5,339.5 C 157.305,341.197 159.639,342.03 162.5,342C 159.5,342.333 156.5,342.667 153.5,343C 160.607,343.067 167.607,343.901 174.5,345.5C 175.925,345.377 177.258,345.043 178.5,344.5C 185.442,348.672 190.275,354.672 193,362.5C 194.562,366.014 195.395,369.681 195.5,373.5C 193.247,379.587 192.913,385.921 194.5,392.5C 193.205,395.379 192.538,398.379 192.5,401.5C 191.5,401.5 190.5,401.5 189.5,401.5C 188.881,404.311 187.548,406.811 185.5,409C 186.148,410.44 186.481,411.94 186.5,413.5C 186.672,414.492 186.338,415.158 185.5,415.5C 183.508,415.328 181.842,415.995 180.5,417.5C 179.859,419.296 178.859,420.796 177.5,422C 178.554,423.388 178.72,424.888 178,426.5C 176.594,425.332 175.428,425.665 174.5,427.5C 173.334,441.488 173.167,455.488 174,469.5C 174.333,469.833 174.667,470.167 175,470.5C 174.898,466.044 175.732,462.044 177.5,458.5C 177.768,474.353 173.435,488.686 164.5,501.5C 163.259,499.069 162.092,499.069 161,501.5C 160.833,501 160.667,500.5 160.5,500C 164.668,491.489 165.501,482.656 163,473.5C 157.655,462.755 155.321,451.422 156,439.5C 161.041,428.112 167.374,417.445 175,407.5C 176.47,403.226 178.47,399.226 181,395.5C 184.76,386.066 183.927,377.066 178.5,368.5C 178.822,384.466 173.489,398.133 162.5,409.5C 158.765,412.691 154.765,415.358 150.5,417.5C 150.891,413.927 151.891,410.593 153.5,407.5C 157.882,399.035 161.215,390.035 163.5,380.5C 163.192,372.719 159.859,366.553 153.5,362C 141.019,356.18 130.019,348.347 120.5,338.5C 118.545,335.01 117.045,331.344 116,327.5C 115.194,319.235 114.028,311.068 112.5,303C 111.833,302.333 111.167,302.333 110.5,303C 105.818,306.354 101.151,309.688 96.5,313C 89.4133,315.962 83.2466,314.796 78,309.5C 73.4873,302.131 70.654,294.131 69.5,285.5C 67.5,286.167 65.5,286.833 63.5,287.5C 61.5803,292.677 60.247,298.011 59.5,303.5C 59.5696,307.624 60.2362,311.624 61.5,315.5C 63.4527,319.807 65.4527,324.141 67.5,328.5C 74.2926,335.456 80.1259,343.123 85,351.5C 89.3949,363.157 90.5616,375.157 88.5,387.5C 85.275,397.726 78.6084,404.726 68.5,408.5C 69.2098,400.908 69.2098,393.241 68.5,385.5C 66.1667,389.167 63.8333,392.833 61.5,396.5C 54.7888,402.219 48.1222,407.886 41.5,413.5C 39.5531,414.473 37.5531,415.473 35.5,416.5C 31.6637,421.51 27.8304,426.51 24,431.5C 19.4388,439.956 16.6054,448.956 15.5,458.5C 16.175,467.212 18.3417,475.546 22,483.5C 27.2981,492.863 33.1314,501.863 39.5,510.5C 38.6798,512.111 37.3464,512.778 35.5,512.5C 20.3363,503.163 9.66968,490.163 3.5,473.5C 5.0265,472.508 5.69316,471.008 5.5,469C 2.92902,460.855 2.92902,452.689 5.5,444.5C 5.65976,442.645 4.99309,441.312 3.5,440.5C 8.68689,420.267 19.6869,404.1 36.5,392C 44.6788,387.747 52.3455,382.747 59.5,377C 64.2906,373.258 66.1239,368.424 65,362.5C 56.9609,356.128 49.9609,348.795 44,340.5C 35.8283,323.957 35.495,307.29 43,290.5C 46.0852,285.328 49.4186,280.328 53,275.5C 63.4776,265.6 74.1442,255.933 85,246.5C 88.7645,241.18 91.7645,235.513 94,229.5C 96.7647,232.363 97.9314,235.863 97.5,240C 96.3571,248.212 95.0237,256.379 93.5,264.5C 93.5901,272.434 97.5901,277.268 105.5,279C 116.087,279.797 126.42,281.797 136.5,285C 145.288,288.785 149.622,295.452 149.5,305C 148.071,313.028 145.905,320.861 143,328.5C 142.333,331.167 142.333,333.833 143,336.5C 143.903,337.701 145.069,338.535 146.5,339C 149.482,339.498 152.482,339.665 155.5,339.5 Z"/></g>
<g><path style="opacity:1" fill="#f99e32" d="M 153.5,407.5 C 153.627,404.755 152.46,402.755 150,401.5C 148.203,394.787 146.037,388.287 143.5,382C 145.768,376.649 144.435,372.649 139.5,370C 140.862,367.561 142.695,367.061 145,368.5C 146.827,366.76 146.66,365.093 144.5,363.5C 140.759,365.331 136.759,365.997 132.5,365.5C 132.5,364.167 132.5,362.833 132.5,361.5C 130.856,361.286 129.356,361.62 128,362.5C 127.383,361.551 127.549,360.718 128.5,360C 127.953,359.075 127.287,358.242 126.5,357.5C 125.676,360.785 125.176,364.118 125,367.5C 122.219,365.046 120.219,362.046 119,358.5C 117.989,357.663 116.822,357.33 115.5,357.5C 111.06,353.27 108.727,347.937 108.5,341.5C 107.416,342.665 106.583,343.998 106,345.5C 106.635,365.489 106.968,385.489 107,405.5C 105.408,413.56 101.575,420.227 95.5,425.5C 97.0514,422.233 98.718,418.899 100.5,415.5C 101.321,412.553 101.821,409.553 102,406.5C 103,405.5 104,404.5 105,403.5C 104.056,384.523 103.722,365.523 104,346.5C 105.044,344.285 105.71,341.952 106,339.5C 106.741,340.641 107.575,340.641 108.5,339.5C 109.429,338.311 109.762,336.978 109.5,335.5C 106.208,335.12 103.875,336.453 102.5,339.5C 101.667,354.155 101.167,368.822 101,383.5C 99.8818,386.139 99.3818,388.973 99.5,392C 100.039,396.546 100.706,401.046 101.5,405.5C 98.0678,405.243 94.7345,404.576 91.5,403.5C 92.576,406.734 93.2427,410.068 93.5,413.5C 90.0678,413.243 86.7345,412.576 83.5,411.5C 83.5601,415.485 81.5601,417.152 77.5,416.5C 77.4802,414.857 78.1468,413.524 79.5,412.5C 77.9951,411.158 77.3285,409.492 77.5,407.5C 74.0504,408.91 70.3837,409.576 66.5,409.5C 66.1667,404.167 65.8333,404.167 65.5,409.5C 59.9066,409.807 54.4066,409.473 49,408.5C 47.647,409.685 46.4803,411.019 45.5,412.5C 44.3112,413.429 42.9778,413.762 41.5,413.5C 48.1222,407.886 54.7888,402.219 61.5,396.5C 63.8333,392.833 66.1667,389.167 68.5,385.5C 69.2098,393.241 69.2098,400.908 68.5,408.5C 78.6084,404.726 85.275,397.726 88.5,387.5C 90.5616,375.157 89.3949,363.157 85,351.5C 80.1259,343.123 74.2926,335.456 67.5,328.5C 65.4527,324.141 63.4527,319.807 61.5,315.5C 60.2362,311.624 59.5696,307.624 59.5,303.5C 60.247,298.011 61.5803,292.677 63.5,287.5C 65.5,286.833 67.5,286.167 69.5,285.5C 70.654,294.131 73.4873,302.131 78,309.5C 83.2466,314.796 89.4133,315.962 96.5,313C 101.151,309.688 105.818,306.354 110.5,303C 111.167,302.333 111.833,302.333 112.5,303C 114.028,311.068 115.194,319.235 116,327.5C 117.045,331.344 118.545,335.01 120.5,338.5C 130.019,348.347 141.019,356.18 153.5,362C 159.859,366.553 163.192,372.719 163.5,380.5C 161.215,390.035 157.882,399.035 153.5,407.5 Z"/></g>
<g><path style="opacity:0.311" fill="#e16726" d="M 155.5,339.5 C 160.752,340.285 166.085,340.785 171.5,341C 174.174,341.67 176.507,342.837 178.5,344.5C 177.258,345.043 175.925,345.377 174.5,345.5C 167.607,343.901 160.607,343.067 153.5,343C 156.5,342.667 159.5,342.333 162.5,342C 159.639,342.03 157.305,341.197 155.5,339.5 Z"/></g>
<g><path style="opacity:1" fill="#fbb45f" d="M 115.5,357.5 C 116.978,360.456 118.478,363.456 120,366.5C 121.011,367.337 122.178,367.67 123.5,367.5C 123.032,370.942 124.198,373.609 127,375.5C 131.79,383.907 133.457,392.907 132,402.5C 128.393,416.046 123.393,429.046 117,441.5C 115.753,448.779 115.253,456.112 115.5,463.5C 118.365,463.945 120.865,463.278 123,461.5C 126.402,455.031 130.069,448.698 134,442.5C 134.336,446.689 134.836,450.856 135.5,455C 140.771,469.7 144.104,484.7 145.5,500C 145.211,504.599 144.544,509.099 143.5,513.5C 145.5,513.833 147.5,514.167 149.5,514.5C 140.688,520.166 131.022,524 120.5,526C 103.5,526.667 86.5,526.667 69.5,526C 60.4401,524.258 51.7735,521.424 43.5,517.5C 46.5551,518.564 49.8884,518.564 53.5,517.5C 53.3505,518.552 53.5172,519.552 54,520.5C 55.7261,519.424 57.5594,519.257 59.5,520C 58.2888,520.893 58.2888,521.726 59.5,522.5C 60.7362,521.754 62.0695,521.421 63.5,521.5C 63.5869,515.909 60.9202,512.242 55.5,510.5C 52.1667,505.833 48.8333,501.167 45.5,496.5C 42.2377,489.165 41.071,481.498 42,473.5C 45.17,465.161 48.3366,456.828 51.5,448.5C 53.3502,444.789 55.6836,441.456 58.5,438.5C 60.1287,441.266 60.7954,444.266 60.5,447.5C 62.1998,447.626 63.6998,448.293 65,449.5C 67.8766,448.597 70.71,447.597 73.5,446.5C 81.5332,440.131 88.8666,433.131 95.5,425.5C 101.575,420.227 105.408,413.56 107,405.5C 106.968,385.489 106.635,365.489 106,345.5C 106.583,343.998 107.416,342.665 108.5,341.5C 108.727,347.937 111.06,353.27 115.5,357.5 Z"/></g>
<g><path style="opacity:1" fill="#f99f32" d="M 95.5,425.5 C 88.8666,433.131 81.5332,440.131 73.5,446.5C 70.71,447.597 67.8766,448.597 65,449.5C 63.6998,448.293 62.1998,447.626 60.5,447.5C 60.7954,444.266 60.1287,441.266 58.5,438.5C 55.6836,441.456 53.3502,444.789 51.5,448.5C 48.3366,456.828 45.17,465.161 42,473.5C 41.071,481.498 42.2377,489.165 45.5,496.5C 48.8333,501.167 52.1667,505.833 55.5,510.5C 60.9202,512.242 63.5869,515.909 63.5,521.5C 62.0695,521.421 60.7362,521.754 59.5,522.5C 58.2888,521.726 58.2888,520.893 59.5,520C 57.5594,519.257 55.7261,519.424 54,520.5C 53.5172,519.552 53.3505,518.552 53.5,517.5C 49.8884,518.564 46.5551,518.564 43.5,517.5C 40.4604,516.32 37.7937,514.653 35.5,512.5C 37.3464,512.778 38.6798,512.111 39.5,510.5C 33.1314,501.863 27.2981,492.863 22,483.5C 18.3417,475.546 16.175,467.212 15.5,458.5C 16.6054,448.956 19.4388,439.956 24,431.5C 27.8304,426.51 31.6637,421.51 35.5,416.5C 37.5531,415.473 39.5531,414.473 41.5,413.5C 42.9778,413.762 44.3112,413.429 45.5,412.5C 46.4803,411.019 47.647,409.685 49,408.5C 54.4066,409.473 59.9066,409.807 65.5,409.5C 65.8333,404.167 66.1667,404.167 66.5,409.5C 70.3837,409.576 74.0504,408.91 77.5,407.5C 77.3285,409.492 77.9951,411.158 79.5,412.5C 78.1468,413.524 77.4802,414.857 77.5,416.5C 81.5601,417.152 83.5601,415.485 83.5,411.5C 86.7345,412.576 90.0678,413.243 93.5,413.5C 93.2427,410.068 92.576,406.734 91.5,403.5C 94.7345,404.576 98.0678,405.243 101.5,405.5C 100.706,401.046 100.039,396.546 99.5,392C 99.3818,388.973 99.8818,386.139 101,383.5C 101.167,368.822 101.667,354.155 102.5,339.5C 103.875,336.453 106.208,335.12 109.5,335.5C 109.762,336.978 109.429,338.311 108.5,339.5C 107.575,340.641 106.741,340.641 106,339.5C 105.71,341.952 105.044,344.285 104,346.5C 103.722,365.523 104.056,384.523 105,403.5C 104,404.5 103,405.5 102,406.5C 101.821,409.553 101.321,412.553 100.5,415.5C 98.718,418.899 97.0514,422.233 95.5,425.5 Z"/></g>
<g><path style="opacity:0.031" fill="#f27b3c" d="M 195.5,373.5 C 195.666,381.507 195.5,389.507 195,397.5C 192.931,403.308 190.098,408.641 186.5,413.5C 186.481,411.94 186.148,410.44 185.5,409C 187.548,406.811 188.881,404.311 189.5,401.5C 190.5,401.5 191.5,401.5 192.5,401.5C 192.538,398.379 193.205,395.379 194.5,392.5C 192.913,385.921 193.247,379.587 195.5,373.5 Z"/></g>
<g><path style="opacity:1" fill="#f99f32" d="M 115.5,357.5 C 116.822,357.33 117.989,357.663 119,358.5C 120.219,362.046 122.219,365.046 125,367.5C 125.176,364.118 125.676,360.785 126.5,357.5C 127.287,358.242 127.953,359.075 128.5,360C 127.549,360.718 127.383,361.551 128,362.5C 129.356,361.62 130.856,361.286 132.5,361.5C 132.5,362.833 132.5,364.167 132.5,365.5C 136.759,365.997 140.759,365.331 144.5,363.5C 146.66,365.093 146.827,366.76 145,368.5C 142.695,367.061 140.862,367.561 139.5,370C 144.435,372.649 145.768,376.649 143.5,382C 146.037,388.287 148.203,394.787 150,401.5C 152.46,402.755 153.627,404.755 153.5,407.5C 151.891,410.593 150.891,413.927 150.5,417.5C 154.765,415.358 158.765,412.691 162.5,409.5C 173.489,398.133 178.822,384.466 178.5,368.5C 183.927,377.066 184.76,386.066 181,395.5C 178.47,399.226 176.47,403.226 175,407.5C 167.374,417.445 161.041,428.112 156,439.5C 155.321,451.422 157.655,462.755 163,473.5C 165.501,482.656 164.668,491.489 160.5,500C 160.667,500.5 160.833,501 161,501.5C 162.092,499.069 163.259,499.069 164.5,501.5C 160.391,506.948 155.391,511.281 149.5,514.5C 147.5,514.167 145.5,513.833 143.5,513.5C 144.544,509.099 145.211,504.599 145.5,500C 144.104,484.7 140.771,469.7 135.5,455C 134.836,450.856 134.336,446.689 134,442.5C 130.069,448.698 126.402,455.031 123,461.5C 120.865,463.278 118.365,463.945 115.5,463.5C 115.253,456.112 115.753,448.779 117,441.5C 123.393,429.046 128.393,416.046 132,402.5C 133.457,392.907 131.79,383.907 127,375.5C 124.198,373.609 123.032,370.942 123.5,367.5C 122.178,367.67 121.011,367.337 120,366.5C 118.478,363.456 116.978,360.456 115.5,357.5 Z"/></g>
<g><path style="opacity:0.2" fill="#ed6b2e" d="M 185.5,415.5 C 181.605,420.624 178.771,426.29 177,432.5C 176.256,441.202 176.422,449.868 177.5,458.5C 175.732,462.044 174.898,466.044 175,470.5C 174.667,470.167 174.333,469.833 174,469.5C 173.167,455.488 173.334,441.488 174.5,427.5C 175.428,425.665 176.594,425.332 178,426.5C 178.72,424.888 178.554,423.388 177.5,422C 178.859,420.796 179.859,419.296 180.5,417.5C 181.842,415.995 183.508,415.328 185.5,415.5 Z"/></g>
<g><path style="opacity:0.71" fill="#f97a2c" d="M 3.5,440.5 C 4.99309,441.312 5.65976,442.645 5.5,444.5C 2.92902,452.689 2.92902,460.855 5.5,469C 5.69316,471.008 5.0265,472.508 3.5,473.5C 2.1869,462.47 2.1869,451.47 3.5,440.5 Z"/></g>
</svg>
